<svg width="25" height="24" viewBox="0 0 25 24" fill="none" xmlns="http://www.w3.org/2000/svg">
<path d="M10.9476 6.45972C11.2015 6.20588 11.2015 5.79432 10.9476 5.54048C10.6938 5.28664 10.2822 5.28664 10.0284 5.54048L4.02839 11.5405C3.96607 11.6028 3.91905 11.6746 3.88733 11.7513C3.85555 11.8279 3.83801 11.912 3.83801 12.0001C3.83801 12.0882 3.85555 12.1723 3.88733 12.2489C3.91905 12.3256 3.96607 12.3974 4.02839 12.4597L10.0284 18.4597C10.2822 18.7136 10.6938 18.7136 10.9476 18.4597C11.2015 18.2059 11.2015 17.7943 10.9476 17.5405L6.05725 12.6501H20.488C20.847 12.6501 21.138 12.3591 21.138 12.0001C21.138 11.6411 20.847 11.3501 20.488 11.3501H6.05725L10.9476 6.45972Z" fill="#262D39"/>
</svg>
