<svg width="360" height="166" viewBox="0 0 360 166" fill="none" xmlns="http://www.w3.org/2000/svg">
<path d="M26 160L334 160" stroke="#F8F8F8" stroke-width="12" stroke-linecap="round" stroke-linejoin="round"/>
<path d="M280 18.0516C280 9.17987 274.408 2 267.497 2H192.503C185.604 2 180 9.19408 180 18.0516V154H280V18.0516Z" fill="#FAE100"/>
<path d="M180 154V18.0516C180 9.17987 185.592 2 192.503 2H267.497C274.396 2 280 9.19408 280 18.0516V154" stroke="#3B3E43" stroke-width="4" stroke-miterlimit="10"/>
<path d="M257.501 1.99994C257.501 6.7252 254.466 10.5607 250.727 10.5607H210.106C206.368 10.5607 203.333 6.7252 203.333 1.99994" fill="#3B3E43"/>
<g clip-path="url(#clip0_170_3299)">
<path d="M208.028 100.621L210.543 103.719L211.255 103.158L209.096 100.578L210.964 98.2456L210.251 97.7166L208.028 100.621ZM207.628 95.2875L206.721 95.4927V103.568H207.628V95.2875ZM211.717 102.035C211.717 103.05 212.322 103.654 213.326 103.654C213.898 103.654 214.621 103.395 215.183 102.942L215.291 103.568H215.96V99.8542C215.96 98.4291 215.301 97.7814 213.952 97.7814C213.337 97.7814 212.646 97.9757 212.073 98.2996L212.343 98.9366C212.808 98.7206 213.401 98.5587 213.93 98.5587C214.686 98.5587 215.086 98.915 215.086 99.811V100.275H213.952C212.495 100.275 211.717 100.88 211.717 102.035ZM213.488 102.92C212.905 102.92 212.581 102.586 212.581 101.992C212.581 101.258 213.045 100.912 214.071 100.912H215.086V102.273C214.708 102.64 214.017 102.92 213.488 102.92ZM218.86 100.621L221.375 103.719L222.088 103.158L219.928 100.578L221.796 98.2456L221.084 97.7166L218.86 100.621ZM218.46 95.2875L217.553 95.4927V103.568H218.46V95.2875ZM222.549 102.035C222.549 103.05 223.154 103.654 224.158 103.654C224.73 103.654 225.453 103.395 226.015 102.942L226.123 103.568H226.792V99.8542C226.792 98.4291 226.134 97.7814 224.784 97.7814C224.169 97.7814 223.478 97.9757 222.906 98.2996L223.175 98.9366C223.64 98.7206 224.233 98.5587 224.762 98.5587C225.518 98.5587 225.918 98.915 225.918 99.811V100.275H224.784C223.327 100.275 222.549 100.88 222.549 102.035ZM224.32 102.92C223.737 102.92 223.413 102.586 223.413 101.992C223.413 101.258 223.877 100.912 224.903 100.912H225.918V102.273C225.54 102.64 224.849 102.92 224.32 102.92ZM230.588 97.7814C229.022 97.7814 228.062 98.8394 228.062 100.739C228.062 102.629 229.012 103.676 230.588 103.676C232.175 103.676 233.114 102.629 233.114 100.739C233.114 98.8394 232.164 97.7814 230.588 97.7814ZM230.588 98.5263C231.592 98.5263 232.175 99.3036 232.175 100.739C232.175 102.175 231.592 102.931 230.588 102.931C229.584 102.931 229.001 102.175 229.001 100.739C229.001 99.3036 229.584 98.5263 230.588 98.5263ZM234.273 103.568H235.72V99.1849C236.054 99.0553 236.486 98.9689 236.789 98.9689C237.555 98.9689 237.793 99.2388 237.793 99.8758V103.568H239.239V99.919C239.239 98.4939 238.602 97.7058 237.328 97.7058C236.724 97.7058 236.022 97.9973 235.515 98.4507L235.299 97.8786H234.273V103.568ZM240.23 101.927C240.23 103.061 240.845 103.719 241.957 103.719C242.465 103.719 243.091 103.536 243.674 103.082L243.836 103.568H244.85V99.8974C244.85 98.4184 244.084 97.7058 242.626 97.7058C241.882 97.7058 241.072 97.9325 240.521 98.3104L240.921 99.3036C241.439 99.0337 241.925 98.9258 242.454 98.9258C243.307 98.9258 243.501 99.282 243.501 99.9082V100.103H242.594C241.05 100.103 240.23 100.729 240.23 101.927ZM242.249 102.596C241.774 102.596 241.536 102.326 241.536 101.916C241.536 101.344 241.946 101.031 242.724 101.031H243.501V102.143C243.242 102.37 242.745 102.596 242.249 102.596ZM245.449 98.0837L247.436 103.568H248.937L250.923 98.0729L249.509 97.6518L248.192 102.197L246.885 97.6734L245.449 98.0837ZM251.67 97.8786V103.568H253.117V97.8786H251.67ZM252.393 97.0797L253.451 96.0217L252.393 94.9529L251.335 96.0217L252.393 97.0797Z" fill="black"/>
<g clip-path="url(#clip1_170_3299)">
<path fill-rule="evenodd" clip-rule="evenodd" d="M217.424 66.4555C216.536 66.9775 215.815 68.238 215.815 69.2713V81.9585C215.815 82.9916 216.535 84.252 217.424 84.7743L228.185 91.0979C229.073 91.62 230.513 91.6203 231.402 91.0979L242.163 84.7743C243.052 84.2523 243.772 82.9918 243.772 81.9585V69.2713C243.772 68.2382 243.052 66.9778 242.163 66.4555L231.402 60.1318C230.514 59.6098 229.074 59.6095 228.185 60.1318L217.424 66.4555Z" fill="#1976D2"/>
<path d="M231.742 78.0948C231.742 78.3299 231.901 78.4182 232.098 78.2915L238.493 74.183C239.162 73.7526 239.153 73.0676 238.474 72.6542L232.105 68.7762C231.904 68.6542 231.742 68.7455 231.742 68.9811V71.9577H225.218C224.423 71.9577 223.779 72.6055 223.779 73.404V79.9664C223.779 80.2014 223.94 80.4922 224.14 80.6157L226.552 82.1112C226.751 82.2348 226.913 82.1454 226.913 81.9098V75.5302C226.913 75.2954 227.102 75.105 227.337 75.105H231.742V78.0948Z" fill="#FAE100"/>
</g>
</g>
<path d="M66 40C66 37.7909 67.7909 36 70 36H199C201.209 36 203 37.7909 203 40V74C203 76.2091 201.209 78 199 78H66V40Z" fill="#3581FF"/>
<path d="M92.1301 67.8775C86.1906 65.8358 82.131 60.309 82.0437 54.1241L82.0001 50.7426C81.9971 50.5123 82.0807 50.2893 82.2341 50.1176C82.3876 49.946 82.5999 49.8381 82.8291 49.8154C85.8138 49.4895 88.6418 48.3118 90.9757 46.4229C91.2395 46.2098 91.5672 46.0913 91.9063 46.0863C92.2455 46.0814 92.5765 46.1903 92.8464 46.3957C95.2355 48.2138 98.0966 49.3074 101.089 49.5463C101.321 49.5598 101.539 49.6614 101.698 49.8305C101.858 49.9995 101.946 50.2231 101.946 50.4553L101.998 53.8241C102.091 60.0054 98.2078 65.654 92.3319 67.8738L92.2283 67.9138L92.1301 67.8775Z" fill="url(#paint0_linear_170_3299)"/>
<g filter="url(#filter0_i_170_3299)">
<path d="M92.3991 52.4039L95.9598 59.6665C95.9965 59.741 96.0086 59.8253 95.9943 59.9072C95.9801 59.989 95.9402 60.0642 95.8804 60.122C95.8206 60.1797 95.744 60.2169 95.6617 60.2283C95.5794 60.2396 95.4956 60.2246 95.4224 60.1853L92.4302 58.602C92.3249 58.5442 92.2068 58.514 92.0868 58.514C91.9667 58.514 91.8486 58.5442 91.7434 58.602L88.7947 60.2786C88.7238 60.3155 88.6434 60.3298 88.5642 60.3197C88.4849 60.3095 88.4107 60.2755 88.3513 60.222C88.292 60.1685 88.2504 60.0982 88.2321 60.0204C88.2138 59.9427 88.2197 59.8612 88.249 59.7869L91.5815 52.4163C91.6176 52.339 91.6747 52.2734 91.7463 52.2271C91.8179 52.1807 91.9011 52.1554 91.9864 52.1541C92.0717 52.1528 92.1556 52.1755 92.2286 52.2197C92.3016 52.2639 92.3607 52.3277 92.3991 52.4039Z" fill="url(#paint1_radial_170_3299)"/>
</g>
<path d="M118.266 50.6016V62H116.016V53.1953L113.312 54.0547V52.2812L118.023 50.6016H118.266ZM124.312 49.9922V62H122.062V49.9922H124.312ZM129.641 53.5469L125.969 57.7344L124 59.7266L123.18 58.1016L124.742 56.1172L126.938 53.5469H129.641ZM127.305 62L124.805 58.0938L126.359 56.7344L129.898 62H127.305ZM132.859 55.2969V62H130.602V53.5469H132.719L132.859 55.2969ZM132.547 57.4766H131.922C131.922 56.888 131.992 56.3464 132.133 55.8516C132.279 55.3516 132.49 54.9193 132.766 54.5547C133.047 54.1849 133.393 53.8984 133.805 53.6953C134.216 53.4922 134.693 53.3906 135.234 53.3906C135.609 53.3906 135.953 53.4479 136.266 53.5625C136.578 53.6719 136.846 53.8464 137.07 54.0859C137.299 54.3203 137.477 54.6276 137.602 55.0078C137.727 55.3828 137.789 55.8333 137.789 56.3594V62H135.539V56.6094C135.539 56.224 135.487 55.9271 135.383 55.7188C135.279 55.5104 135.13 55.3646 134.938 55.2812C134.75 55.1979 134.523 55.1562 134.258 55.1562C133.966 55.1562 133.711 55.2161 133.492 55.3359C133.279 55.4557 133.102 55.6224 132.961 55.8359C132.82 56.0443 132.716 56.2891 132.648 56.5703C132.581 56.8516 132.547 57.1536 132.547 57.4766ZM137.578 57.2188L136.773 57.3203C136.773 56.7682 136.841 56.2552 136.977 55.7812C137.117 55.3073 137.323 54.8906 137.594 54.5312C137.87 54.1719 138.211 53.8932 138.617 53.6953C139.023 53.4922 139.492 53.3906 140.023 53.3906C140.43 53.3906 140.799 53.4505 141.133 53.5703C141.466 53.6849 141.75 53.8698 141.984 54.125C142.224 54.375 142.406 54.7031 142.531 55.1094C142.661 55.5156 142.727 56.013 142.727 56.6016V62H140.469V56.6016C140.469 56.2109 140.417 55.9141 140.312 55.7109C140.214 55.5026 140.068 55.3594 139.875 55.2812C139.688 55.1979 139.464 55.1562 139.203 55.1562C138.932 55.1562 138.695 55.2109 138.492 55.3203C138.289 55.4245 138.12 55.5703 137.984 55.7578C137.849 55.9453 137.747 56.1641 137.68 56.4141C137.612 56.6589 137.578 56.9271 137.578 57.2188ZM152.634 54.24C151.034 54.576 149.562 54.672 146.89 54.688V51.312H151.402V49.632H144.794V56.384H146.042C149.338 56.384 151.034 56.304 152.842 55.92L152.634 54.24ZM151.05 61.696C149.194 61.696 148.154 61.28 148.154 60.384C148.154 59.504 149.194 59.088 151.05 59.088C152.922 59.088 153.962 59.504 153.962 60.384C153.962 61.28 152.922 61.696 151.05 61.696ZM151.05 57.408C148.026 57.408 146.074 58.528 146.074 60.384C146.074 62.272 148.026 63.392 151.05 63.392C154.106 63.392 156.042 62.272 156.042 60.384C156.042 58.528 154.106 57.408 151.05 57.408ZM155.914 52.128V48.624H153.786V57.152H155.914V53.84H157.834V52.128H155.914ZM165.383 55.3359H166.586C166.971 55.3359 167.289 55.2708 167.539 55.1406C167.789 55.0052 167.974 54.8177 168.094 54.5781C168.219 54.3333 168.281 54.0495 168.281 53.7266C168.281 53.4349 168.224 53.1771 168.109 52.9531C168 52.724 167.831 52.5469 167.602 52.4219C167.372 52.2917 167.083 52.2266 166.734 52.2266C166.458 52.2266 166.203 52.2812 165.969 52.3906C165.734 52.5 165.547 52.6536 165.406 52.8516C165.266 53.0495 165.195 53.2891 165.195 53.5703H162.938C162.938 52.9453 163.104 52.401 163.438 51.9375C163.776 51.474 164.229 51.112 164.797 50.8516C165.365 50.5911 165.99 50.4609 166.672 50.4609C167.443 50.4609 168.117 50.5859 168.695 50.8359C169.273 51.0807 169.724 51.4427 170.047 51.9219C170.37 52.401 170.531 52.9948 170.531 53.7031C170.531 54.0625 170.448 54.4115 170.281 54.75C170.115 55.0833 169.875 55.3854 169.562 55.6562C169.255 55.9219 168.88 56.1354 168.438 56.2969C167.995 56.4531 167.497 56.5312 166.945 56.5312H165.383V55.3359ZM165.383 57.0469V55.8828H166.945C167.565 55.8828 168.109 55.9531 168.578 56.0938C169.047 56.2344 169.44 56.4375 169.758 56.7031C170.076 56.9635 170.315 57.2734 170.477 57.6328C170.638 57.987 170.719 58.3802 170.719 58.8125C170.719 59.3438 170.617 59.8177 170.414 60.2344C170.211 60.6458 169.924 60.9948 169.555 61.2812C169.19 61.5677 168.763 61.7865 168.273 61.9375C167.784 62.0833 167.25 62.1562 166.672 62.1562C166.193 62.1562 165.721 62.0911 165.258 61.9609C164.799 61.8255 164.383 61.625 164.008 61.3594C163.638 61.0885 163.341 60.75 163.117 60.3438C162.898 59.9323 162.789 59.4453 162.789 58.8828H165.047C165.047 59.1745 165.12 59.4349 165.266 59.6641C165.411 59.8932 165.612 60.0729 165.867 60.2031C166.128 60.3333 166.417 60.3984 166.734 60.3984C167.094 60.3984 167.401 60.3333 167.656 60.2031C167.917 60.0677 168.115 59.8802 168.25 59.6406C168.391 59.3958 168.461 59.112 168.461 58.7891C168.461 58.3724 168.385 58.0391 168.234 57.7891C168.083 57.5339 167.867 57.3464 167.586 57.2266C167.305 57.1068 166.971 57.0469 166.586 57.0469H165.383ZM179.692 57.2V58.64H182.46V59.808H184.572V48.64H182.46V57.2H179.692ZM176.86 50.672C177.836 50.672 178.524 51.056 178.524 51.776C178.524 52.496 177.836 52.864 176.86 52.864C175.868 52.864 175.18 52.496 175.18 51.776C175.18 51.056 175.868 50.672 176.86 50.672ZM176.86 54.4C179.004 54.4 180.524 53.344 180.524 51.776C180.524 50.208 179.004 49.136 176.86 49.136C174.7 49.136 173.196 50.208 173.196 51.776C173.196 53.344 174.7 54.4 176.86 54.4ZM176.076 61.44V59.424H178.108V56.64C179.292 56.544 180.476 56.416 181.628 56.224L181.484 54.72C178.38 55.12 174.796 55.152 172.108 55.168L172.38 56.848C173.484 56.848 174.716 56.832 176.012 56.768V58.736H173.964V63.12H184.892V61.44H176.076Z" fill="white"/>
<path d="M66.5 67L66.5 162" stroke="#3581FF" stroke-linecap="round" stroke-dasharray="0.5 3"/>
<path d="M66 160C183.157 160 176.843 160 294 160" stroke="#619CFF" stroke-width="12" stroke-linecap="round"/>
<circle cx="66" cy="160" r="4.5" fill="white" stroke="#619CFF" stroke-width="3"/>
<circle cx="294" cy="160" r="4.5" fill="white" stroke="#619CFF" stroke-width="3"/>
<path d="M109.26 143.739C108.564 149.764 105.088 154.398 100.686 154.398H94.8926C90.4899 154.398 87.014 149.764 86.3189 143.739H109.26Z" fill="#131313"/>
<path d="M130.81 143.739C131.505 149.764 134.981 154.63 139.383 154.63H145.408V143.739H130.81Z" fill="#131313"/>
<path d="M165.105 143.739C165.8 149.764 169.276 154.63 173.679 154.63H179.704V143.739H165.105Z" fill="#131313"/>
<path d="M88.6357 146.055H180.862L189.204 141.884C190.131 141.421 190.594 140.494 190.594 139.799V117.553C190.594 115.699 189.667 114.077 188.045 113.382L185.728 112.223L182.252 107.821C175.996 99.9421 166.727 95.3076 156.763 95.3076H115.284C113.894 95.3076 112.272 96.0028 111.576 97.1614L100.917 111.992L89.0992 117.09C86.0868 118.48 84.0012 121.492 84.0012 124.968V141.189C84.0012 143.97 86.0868 146.055 88.6357 146.055Z" fill="url(#paint2_radial_170_3299)"/>
<path d="M110.881 98.3196H141.005L131.041 112.223H100.917L110.881 98.3196Z" fill="url(#paint3_linear_170_3299)"/>
<path d="M146.799 98.3196H156.763C165.569 98.3196 174.142 102.491 179.472 109.442L179.936 109.906L177.387 111.296C176.228 111.991 174.606 112.223 173.216 112.223H136.835L146.799 98.3196Z" fill="url(#paint4_linear_170_3299)"/>
<path d="M190.594 117.553V139.799C190.594 140.726 190.131 141.421 189.436 141.884L181.094 146.055H88.6357C86.0868 146.055 84.0012 143.97 84.0012 141.421V129.371H122.931L125.248 124.737C127.565 120.102 132.432 117.321 137.529 117.321H171.129C174.605 117.321 177.849 116.626 180.862 115.004L185.96 112.455L188.277 113.614C189.667 114.309 190.594 115.931 190.594 117.553Z" fill="url(#paint5_linear_170_3299)"/>
<path d="M190.594 117.553V139.799C190.594 140.726 190.131 141.421 189.436 141.884L181.094 146.055H88.6357C86.0868 146.055 84.0012 143.97 84.0012 141.421V129.371H122.931L125.248 124.737C127.565 120.102 132.432 117.321 137.529 117.321H171.129C174.605 117.321 177.849 116.626 180.862 115.004L185.96 112.455L188.277 113.614C189.667 114.309 190.594 115.931 190.594 117.553Z" fill="url(#paint6_linear_170_3299)"/>
<path d="M125.248 124.736V129.37H112.503C111.808 129.37 111.345 128.907 111.345 128.212V125.894C111.345 125.199 111.808 124.736 112.503 124.736H125.248Z" fill="url(#paint7_linear_170_3299)"/>
<path d="M88.6351 129.37H84.0006V124.736H88.6351C89.3303 124.736 89.7937 125.199 89.7937 125.894V128.212C89.7937 128.675 89.3303 129.37 88.6351 129.37Z" fill="url(#paint8_linear_170_3299)"/>
<path d="M179.703 154.398C175.096 154.398 171.361 148.485 171.361 141.19C171.361 133.895 175.096 127.982 179.703 127.982C184.31 127.982 188.045 133.895 188.045 141.19C188.045 148.485 184.31 154.398 179.703 154.398Z" fill="url(#paint9_linear_170_3299)"/>
<path d="M179.703 149.997C177.386 149.997 175.068 146.753 175.068 141.191C175.068 135.63 177.386 132.386 179.703 132.386C182.02 132.386 184.337 135.63 184.337 141.191C184.337 146.753 182.252 149.997 179.703 149.997Z" fill="#E6E6E6"/>
<path d="M179.703 148.372C177.849 148.372 176.227 145.591 176.227 141.189C176.227 136.786 177.849 134.005 179.703 134.005C181.557 134.005 183.179 136.786 183.179 141.189C183.179 145.591 181.557 148.372 179.703 148.372Z" fill="url(#paint10_linear_170_3299)"/>
<path d="M179.703 143.971C179.008 143.971 178.313 142.813 178.313 141.191C178.313 139.337 179.008 138.41 179.703 138.41C180.399 138.41 181.094 139.569 181.094 141.191C181.094 143.044 180.399 143.971 179.703 143.971Z" fill="#E6E6E6"/>
<path d="M145.409 154.398C140.802 154.398 137.067 148.485 137.067 141.19C137.067 133.895 140.802 127.982 145.409 127.982C150.017 127.982 153.751 133.895 153.751 141.19C153.751 148.485 150.017 154.398 145.409 154.398Z" fill="url(#paint11_linear_170_3299)"/>
<path d="M145.409 149.997C143.092 149.997 140.775 146.753 140.775 141.191C140.775 135.63 143.092 132.386 145.409 132.386C147.726 132.386 150.044 135.63 150.044 141.191C150.044 146.753 147.958 149.997 145.409 149.997Z" fill="#E6E6E6"/>
<path d="M145.409 148.372C143.555 148.372 141.933 145.591 141.933 141.189C141.933 136.786 143.555 134.005 145.409 134.005C147.263 134.005 148.885 136.786 148.885 141.189C148.885 145.591 147.263 148.372 145.409 148.372Z" fill="url(#paint12_linear_170_3299)"/>
<path d="M145.41 143.971C144.715 143.971 144.019 142.813 144.019 141.191C144.019 139.337 144.715 138.41 145.41 138.41C146.105 138.41 146.8 139.569 146.8 141.191C146.8 143.044 146.105 143.971 145.41 143.971Z" fill="#E6E6E6"/>
<path d="M125.248 124.736H128.724C129.419 124.736 129.883 125.199 129.883 125.894V128.212C129.883 128.907 129.419 129.37 128.724 129.37H122.931L125.248 124.736Z" fill="url(#paint13_linear_170_3299)"/>
<path d="M153.055 120.799H156.995C157.227 120.799 157.458 120.567 157.458 120.335V119.872C157.458 119.64 157.227 119.408 156.995 119.408H153.055C152.824 119.408 152.592 119.64 152.592 119.872V120.335C152.824 120.567 152.824 120.799 153.055 120.799Z" fill="url(#paint14_linear_170_3299)"/>
<path d="M173.215 120.799H177.154C177.386 120.799 177.618 120.567 177.618 120.335V119.872C177.618 119.64 177.386 119.408 177.154 119.408H173.215C172.983 119.408 172.751 119.64 172.751 119.872V120.335C172.751 120.567 172.983 120.799 173.215 120.799Z" fill="url(#paint15_linear_170_3299)"/>
<defs>
<filter id="filter0_i_170_3299" x="88.2217" y="52.1541" width="7.77856" height="9.16876" filterUnits="userSpaceOnUse" color-interpolation-filters="sRGB">
<feFlood flood-opacity="0" result="BackgroundImageFix"/>
<feBlend mode="normal" in="SourceGraphic" in2="BackgroundImageFix" result="shape"/>
<feColorMatrix in="SourceAlpha" type="matrix" values="0 0 0 0 0 0 0 0 0 0 0 0 0 0 0 0 0 0 127 0" result="hardAlpha"/>
<feOffset dy="1"/>
<feGaussianBlur stdDeviation="0.5"/>
<feComposite in2="hardAlpha" operator="arithmetic" k2="-1" k3="1"/>
<feColorMatrix type="matrix" values="0 0 0 0 0 0 0 0 0 0 0 0 0 0 0 0 0 0 0.15 0"/>
<feBlend mode="normal" in2="shape" result="effect1_innerShadow_170_3299"/>
</filter>
<linearGradient id="paint0_linear_170_3299" x1="91.9475" y1="48.1522" x2="92.2456" y2="68.0186" gradientUnits="userSpaceOnUse">
<stop offset="0.0989583" stop-color="#FFE51B"/>
<stop offset="0.328125" stop-color="#FFDC29"/>
<stop offset="0.692708" stop-color="#FED728"/>
<stop offset="0.96875" stop-color="#FFCC33"/>
</linearGradient>
<radialGradient id="paint1_radial_170_3299" cx="0" cy="0" r="1" gradientUnits="userSpaceOnUse" gradientTransform="translate(92.111 55.0999) rotate(33.8112) scale(5.50487 5.17361)">
<stop stop-color="#5E9AFF"/>
<stop offset="1" stop-color="#3581FF"/>
</radialGradient>
<radialGradient id="paint2_radial_170_3299" cx="0" cy="0" r="1" gradientUnits="userSpaceOnUse" gradientTransform="translate(138.647 144.666) rotate(-90) scale(54.5107 60.0054)">
<stop offset="0.3364" stop-color="#FCFCFC"/>
<stop offset="0.6393" stop-color="#FAFAFB"/>
<stop offset="0.8356" stop-color="#F1F2F4"/>
<stop offset="0.9232" stop-color="#EAECEE"/>
<stop offset="1" stop-color="#DFE2E6"/>
</radialGradient>
<linearGradient id="paint3_linear_170_3299" x1="120.942" y1="99.1661" x2="120.942" y2="110.954" gradientUnits="userSpaceOnUse">
<stop/>
<stop offset="0.1991" stop-color="#0B0B0C"/>
<stop offset="0.5591" stop-color="#27282C"/>
<stop offset="1" stop-color="#51545B"/>
</linearGradient>
<linearGradient id="paint4_linear_170_3299" x1="158.473" y1="99.1661" x2="158.473" y2="110.954" gradientUnits="userSpaceOnUse">
<stop/>
<stop offset="0.1991" stop-color="#0B0B0C"/>
<stop offset="0.5591" stop-color="#27282C"/>
<stop offset="1" stop-color="#51545B"/>
</linearGradient>
<linearGradient id="paint5_linear_170_3299" x1="190.594" y1="129.169" x2="83.345" y2="129.169" gradientUnits="userSpaceOnUse">
<stop stop-color="#9298A8"/>
<stop offset="0.0197832" stop-color="#ACB1BD"/>
<stop offset="0.037751" stop-color="#BDC0CA"/>
<stop offset="0.0513365" stop-color="#C3C6CF"/>
<stop offset="0.1128" stop-color="#CDD0D7"/>
<stop offset="0.2179" stop-color="#D8DBE0"/>
<stop offset="0.3328" stop-color="#DCDEE3"/>
<stop offset="0.5217" stop-color="#E1E3E6"/>
<stop offset="0.7456" stop-color="#EFF0F0"/>
<stop offset="0.7651" stop-color="#F1F1F1"/>
<stop offset="0.9469" stop-color="#EEEFF2"/>
<stop offset="0.9625" stop-color="#E9EAEE"/>
<stop offset="0.9809" stop-color="#DBDDE2"/>
<stop offset="1" stop-color="#C4C7CF"/>
</linearGradient>
<linearGradient id="paint6_linear_170_3299" x1="137.298" y1="146.103" x2="137.298" y2="132.716" gradientUnits="userSpaceOnUse">
<stop offset="0.0597438" stop-color="#9196A7"/>
<stop offset="0.2389" stop-color="#9196A7" stop-opacity="0.2"/>
<stop offset="0.7186" stop-color="#9196A7" stop-opacity="0"/>
</linearGradient>
<linearGradient id="paint7_linear_170_3299" x1="125.331" y1="126.944" x2="111.427" y2="126.944" gradientUnits="userSpaceOnUse">
<stop stop-color="#848EA3"/>
<stop offset="1" stop-color="#9DA5B6"/>
</linearGradient>
<linearGradient id="paint8_linear_170_3299" x1="84.1415" y1="126.944" x2="86.6457" y2="126.944" gradientUnits="userSpaceOnUse">
<stop stop-color="#848EA3"/>
<stop offset="1" stop-color="#9DA5B6"/>
</linearGradient>
<linearGradient id="paint9_linear_170_3299" x1="179.749" y1="153.445" x2="179.749" y2="140.108" gradientUnits="userSpaceOnUse">
<stop offset="0.000575032" stop-color="#323232"/>
<stop offset="1" stop-color="#191919"/>
</linearGradient>
<linearGradient id="paint10_linear_170_3299" x1="176.483" y1="136.625" x2="180.704" y2="142.562" gradientUnits="userSpaceOnUse">
<stop stop-color="#8289A3"/>
<stop offset="0.2283" stop-color="#8F96AF" stop-opacity="0.7717"/>
<stop offset="0.653" stop-color="#B3B8CF" stop-opacity="0.347"/>
<stop offset="1" stop-color="#D4D8ED" stop-opacity="0"/>
</linearGradient>
<linearGradient id="paint11_linear_170_3299" x1="145.456" y1="153.445" x2="145.456" y2="140.108" gradientUnits="userSpaceOnUse">
<stop offset="0.000575032" stop-color="#323232"/>
<stop offset="1" stop-color="#191919"/>
</linearGradient>
<linearGradient id="paint12_linear_170_3299" x1="142.189" y1="136.625" x2="146.41" y2="142.562" gradientUnits="userSpaceOnUse">
<stop stop-color="#8289A3"/>
<stop offset="0.2283" stop-color="#8F96AF" stop-opacity="0.7717"/>
<stop offset="0.653" stop-color="#B3B8CF" stop-opacity="0.347"/>
<stop offset="1" stop-color="#D4D8ED" stop-opacity="0"/>
</linearGradient>
<linearGradient id="paint13_linear_170_3299" x1="132.995" y1="131.257" x2="125.464" y2="126.954" gradientUnits="userSpaceOnUse">
<stop stop-color="#5E6C7D"/>
<stop offset="1" stop-color="#3D485B"/>
</linearGradient>
<linearGradient id="paint14_linear_170_3299" x1="157.563" y1="120.133" x2="152.743" y2="120.133" gradientUnits="userSpaceOnUse">
<stop stop-color="#757F97" stop-opacity="0.4"/>
<stop offset="0.4982" stop-color="#757F97" stop-opacity="0.3"/>
<stop offset="1" stop-color="#757F97" stop-opacity="0.5"/>
</linearGradient>
<linearGradient id="paint15_linear_170_3299" x1="177.512" y1="120.133" x2="172.692" y2="120.133" gradientUnits="userSpaceOnUse">
<stop stop-color="#757F97" stop-opacity="0.4"/>
<stop offset="0.4982" stop-color="#757F97" stop-opacity="0.3"/>
<stop offset="1" stop-color="#757F97" stop-opacity="0.5"/>
</linearGradient>
<clipPath id="clip0_170_3299">
<rect width="48.806" height="49.6078" fill="white" transform="translate(205.355 59.1028)"/>
</clipPath>
<clipPath id="clip1_170_3299">
<rect width="31.7494" height="31.7494" fill="white" transform="translate(213.828 59.7383)"/>
</clipPath>
</defs>
</svg>
