<svg width="53" height="53" viewBox="0 0 53 53" fill="none" xmlns="http://www.w3.org/2000/svg">
<rect width="52" height="52" transform="translate(0 1)" fill="white"/>
<g opacity="0.4">
<path d="M21.3264 41.9458C21.2427 41.8621 21.1069 41.8621 21.0232 41.9458C20.9395 42.0296 20.9395 42.1653 21.0232 42.2491L27.4989 48.7247C28.3123 49.5381 29.631 49.5381 30.4443 48.7247C30.4705 48.6986 30.4958 48.672 30.5202 48.6449C29.7866 49.3019 28.6586 49.278 27.9537 48.5731L21.3264 41.9458Z" fill="#AA6D38"/>
<path d="M23.817 39.152L30.4495 45.7845C30.4478 45.7827 30.4461 45.781 30.4444 45.7793L23.817 39.152Z" fill="#AA6D38"/>
</g>
<path d="M12.0363 33.2622L22.3455 22.9531L17.968 18.5756C17.5838 18.1914 16.9609 18.1914 16.5767 18.5756L7.65887 27.4935C7.27468 27.8777 7.27468 28.5006 7.65887 28.8848L12.0363 33.2622Z" fill="url(#paint0_linear_359_3981)"/>
<path d="M20.8718 42.0979L23.8172 39.1524L30.4445 45.7797C31.2579 46.5931 31.2579 47.9118 30.4445 48.7252C29.6312 49.5386 28.3124 49.5386 27.4991 48.7252L20.8718 42.0979Z" fill="url(#paint1_linear_359_3981)"/>
<path d="M12.0363 33.2622L22.3455 22.9531L26.8192 24.4814L33.0223 30.6845L21.2404 42.4664L12.0363 33.2622Z" fill="url(#paint2_linear_359_3981)"/>
<path d="M23.8172 39.1524L26.7627 36.2069L33.39 42.8342C34.2034 43.6476 34.2034 44.9663 33.39 45.7797C32.5767 46.5931 31.2579 46.5931 30.4445 45.7797L23.8172 39.1524Z" fill="url(#paint3_linear_359_3981)"/>
<path d="M26.7627 36.2069L29.7082 33.2615L36.3355 39.8888C37.1489 40.7021 37.1489 42.0209 36.3355 42.8342C35.5221 43.6476 34.2034 43.6476 33.39 42.8342L26.7627 36.2069Z" fill="url(#paint4_linear_359_3981)"/>
<path d="M29.7082 33.2615L32.6537 30.316L39.281 36.9433C40.0944 37.7566 40.0944 39.0754 39.281 39.8887C38.4676 40.7021 37.1489 40.7021 36.3355 39.8888L29.7082 33.2615Z" fill="url(#paint5_linear_359_3981)"/>
<g opacity="0.7">
<path d="M24.272 38.9998C24.1883 38.9161 24.0525 38.9161 23.9688 38.9998C23.885 39.0835 23.885 39.2193 23.9688 39.303L30.4444 45.7787C31.2578 46.5921 32.5765 46.5921 33.3899 45.7787C33.416 45.7526 33.4413 45.726 33.4658 45.6988C32.7322 46.3559 31.6042 46.332 30.8993 45.6271L24.272 38.9998Z" fill="#AA6D38"/>
<path d="M26.7626 36.206L33.3951 42.8385C33.3934 42.8367 33.3916 42.835 33.3899 42.8333L26.7626 36.206Z" fill="#AA6D38"/>
</g>
<g opacity="0.7">
<path d="M27.2173 36.0549C27.1336 35.9711 26.9978 35.9711 26.9141 36.0549C26.8303 36.1386 26.8303 36.2744 26.9141 36.3581L33.3898 42.8338C34.2031 43.6472 35.5219 43.6472 36.3352 42.8338C36.3613 42.8077 36.3866 42.781 36.4111 42.7539C35.6775 43.411 34.5495 43.3871 33.8446 42.6822L27.2173 36.0549Z" fill="#AA6D38"/>
<path d="M29.7079 33.261L36.3404 39.8935C36.3387 39.8918 36.337 39.89 36.3352 39.8883L29.7079 33.261Z" fill="#AA6D38"/>
</g>
<g opacity="0.7">
<path d="M30.1629 33.1088C30.0791 33.0251 29.9434 33.0251 29.8596 33.1088C29.7759 33.1926 29.7759 33.3283 29.8596 33.4121L36.3353 39.8878C37.1487 40.7011 38.4674 40.7011 39.2808 39.8878C39.3069 39.8616 39.3322 39.835 39.3566 39.8079C38.623 40.4649 37.495 40.441 36.7902 39.7362L30.1629 33.1088Z" fill="#AA6D38"/>
<path d="M32.6535 30.315L39.286 36.9475C39.2842 36.9458 39.2825 36.944 39.2808 36.9423L32.6535 30.315Z" fill="#AA6D38"/>
</g>
<path opacity="0.7" d="M25.0587 31.2592C23.7633 32.5655 21.6528 32.5699 20.352 31.2691C20.0277 30.9448 20.0277 30.4191 20.352 30.0948L26.3921 24.0546L30.7817 28.4679C30.7817 28.4679 30.0132 28.8675 29.3061 28.9598C29.0198 28.9971 28.6429 29.0043 28.2956 28.9996C27.6876 28.9914 27.0921 29.2088 26.664 29.6405L25.0587 31.2592Z" fill="#AA6D38"/>
<path d="M29.7085 22.9526L40.0176 33.2618L44.3951 28.8843C44.7793 28.5001 44.7793 27.8772 44.3951 27.493L35.4772 18.5752C35.093 18.191 34.4701 18.191 34.0859 18.5752L29.7085 22.9526Z" fill="url(#paint6_linear_359_3981)"/>
<path d="M24.7744 30.9752C23.479 32.2815 21.3685 32.2859 20.0676 30.985C19.7434 30.6608 19.7434 30.1351 20.0676 29.8108L26.1078 23.7706L30.4974 28.1839C30.4974 28.1839 29.7289 28.5835 29.0218 28.6758C28.7355 28.7131 28.3586 28.7203 28.0113 28.7156C27.4033 28.7074 26.8078 28.9247 26.3796 29.3565L24.7744 30.9752Z" fill="url(#paint7_linear_359_3981)"/>
<path d="M26.1078 23.7706L37.8899 35.5524L40.0176 33.2618L29.7085 22.9526L26.1078 23.7706Z" fill="url(#paint8_linear_359_3981)"/>
<path d="M13.5488 36.3296C12.7355 37.143 12.7355 38.4617 13.5488 39.2751C14.3622 40.0885 15.6809 40.0885 16.4943 39.2751L17.967 37.8023C18.7804 36.989 18.7804 35.6703 17.967 34.8569C17.1537 34.0435 15.8349 34.0435 15.0216 34.8569L13.5488 36.3296Z" fill="url(#paint9_linear_359_3981)"/>
<path d="M16.4943 39.2751C15.6809 40.0885 15.6809 41.4074 16.4943 42.2207C17.3077 43.0341 18.6264 43.0341 19.4398 42.2207L20.9125 40.748C21.7259 39.9346 21.7259 38.6159 20.9125 37.8025C20.0991 36.9892 18.7804 36.989 17.967 37.8023L16.4943 39.2751Z" fill="url(#paint10_linear_359_3981)"/>
<path d="M19.4398 42.2207C18.6264 43.0341 18.6265 44.3529 19.4399 45.1663C20.2532 45.9797 21.572 45.9797 22.3853 45.1663L23.8581 43.6936C24.6715 42.8802 24.6715 41.5615 23.8581 40.7481C23.0447 39.9347 21.7259 39.9346 20.9125 40.748L19.4398 42.2207Z" fill="url(#paint11_linear_359_3981)"/>
<path d="M22.3853 45.1663C21.572 45.9797 21.572 47.2986 22.3854 48.112C23.1987 48.9253 24.5175 48.9253 25.3308 48.112L26.8036 46.6392C27.6169 45.8259 27.6169 44.5071 26.8036 43.6938C25.9902 42.8804 24.6715 42.8802 23.8581 43.6936L22.3853 45.1663Z" fill="url(#paint12_linear_359_3981)"/>
<path d="M16.4943 39.2751C15.6809 40.0885 15.6809 41.4074 16.4943 42.2207C17.3077 43.0341 18.6264 43.0341 19.4398 42.2207L20.9125 40.748C21.7259 39.9346 21.7259 38.6159 20.9125 37.8025C20.0991 36.9892 18.7804 36.989 17.967 37.8023L16.4943 39.2751Z" fill="url(#paint13_linear_359_3981)"/>
<path opacity="0.7" fill-rule="evenodd" clip-rule="evenodd" d="M13.5489 39.2751C13.5356 39.2618 13.5226 39.2484 13.5097 39.2349C14.2824 39.9666 15.502 39.9538 16.2591 39.1967L17.6535 37.8024C18.4235 37.0323 18.4235 35.7838 17.6535 35.0137C16.8834 34.2437 15.6349 34.2437 14.8648 35.0137L15.0217 34.8569C15.835 34.0436 17.1537 34.0436 17.9671 34.8569C18.7805 35.6703 18.7805 36.989 17.9671 37.8024L16.4944 39.2751C15.681 40.0885 14.3623 40.0885 13.5489 39.2751Z" fill="#AA6D38"/>
<path opacity="0.7" fill-rule="evenodd" clip-rule="evenodd" d="M16.4942 42.2209C16.4809 42.2076 16.4679 42.1941 16.455 42.1806C17.2277 42.9123 18.4473 42.8996 19.2045 42.1424L20.5988 40.7481C21.3688 39.9781 21.3688 38.7295 20.5988 37.9595C19.8287 37.1894 18.5802 37.1894 17.8101 37.9595L17.967 37.8027C18.7803 36.9893 20.0991 36.9893 20.9124 37.8027C21.7258 38.616 21.7258 39.9348 20.9124 40.7481L19.4397 42.2209C18.6263 43.0342 17.3076 43.0342 16.4942 42.2209Z" fill="#AA6D38"/>
<path opacity="0.7" fill-rule="evenodd" clip-rule="evenodd" d="M19.4395 45.1663C19.4263 45.153 19.4132 45.1396 19.4003 45.126C20.173 45.8577 21.3926 45.845 22.1498 45.0879L23.5441 43.6936C24.3142 42.9235 24.3142 41.675 23.5441 40.9049C22.774 40.1349 21.5255 40.1349 20.7555 40.9049L20.9123 40.7481C21.7256 39.9347 23.0444 39.9347 23.8577 40.7481C24.6711 41.5615 24.6711 42.8802 23.8577 43.6936L22.385 45.1663C21.5716 45.9797 20.2529 45.9797 19.4395 45.1663Z" fill="#AA6D38"/>
<path opacity="0.7" fill-rule="evenodd" clip-rule="evenodd" d="M22.3856 48.111C22.3723 48.0977 22.3592 48.0843 22.3464 48.0707C23.119 48.8024 24.3387 48.7897 25.0958 48.0326L26.4901 46.6382C27.2602 45.8682 27.2602 44.6197 26.4901 43.8496C25.7201 43.0795 24.4716 43.0795 23.7015 43.8496L23.8583 43.6928C24.6717 42.8794 25.9904 42.8794 26.8038 43.6928C27.6172 44.5061 27.6172 45.8249 26.8038 46.6382L25.3311 48.111C24.5177 48.9243 23.199 48.9243 22.3856 48.111Z" fill="#AA6D38"/>
<rect x="2.78882" y="24.0159" width="14.5643" height="10.8697" rx="0.491886" transform="rotate(-45 2.78882 24.0159)" fill="url(#paint14_linear_359_3981)"/>
<rect x="31.1411" y="21.4894" width="11.0289" height="14.5875" rx="0.491886" transform="rotate(-45 31.1411 21.4894)" fill="url(#paint15_linear_359_3981)"/>
<path fill-rule="evenodd" clip-rule="evenodd" d="M32.2036 9.86263C32.1143 9.86263 32.0494 9.7777 32.0729 9.69152L33.0405 6.14181C33.064 6.05563 32.9991 5.9707 32.9098 5.9707H30.3292C30.2657 5.9707 30.2108 6.01475 30.1969 6.07669L29.3763 9.75664C29.3625 9.81858 29.3075 9.86263 29.244 9.86263H27.9949C27.9302 9.86263 27.8745 9.81687 27.8619 9.75339L27.1367 6.07994C27.1242 6.01646 27.0685 5.9707 27.0038 5.9707H25.102C25.0378 5.9707 24.9824 6.01572 24.9693 6.07854L24.2032 9.75479C24.1901 9.81761 24.1348 9.86263 24.0706 9.86263H22.7706C22.7073 9.86263 22.6525 9.81882 22.6385 9.7571L21.8041 6.07623C21.7901 6.01451 21.7353 5.9707 21.672 5.9707H19.091C19.0017 5.9707 18.9368 6.05563 18.9603 6.14181L19.9279 9.69152C19.9513 9.7777 19.8865 9.86263 19.7971 9.86263H18.761C18.6861 9.86263 18.6255 9.92329 18.6255 9.99811V11.5709C18.6255 11.6457 18.6861 11.7063 18.761 11.7063H20.3736C20.4347 11.7063 20.4882 11.7472 20.5043 11.8062L22.0715 17.556C22.0876 17.6149 22.1411 17.6558 22.2022 17.6558H24.378C24.4419 17.6558 24.4971 17.6112 24.5104 17.5487L25.7393 11.8134C25.7526 11.751 25.8079 11.7063 25.8717 11.7063H26.1291C26.1929 11.7063 26.2482 11.751 26.2615 11.8134L27.4904 17.5487C27.5037 17.6112 27.5589 17.6558 27.6228 17.6558H29.7986C29.8597 17.6558 29.9132 17.6149 29.9293 17.556L31.4965 11.8062C31.5126 11.7472 31.5661 11.7063 31.6272 11.7063H33.2397C33.3145 11.7063 33.3752 11.6457 33.3752 11.5709V9.99811C33.3752 9.92329 33.3145 9.86263 33.2397 9.86263H32.2036ZM28.9047 11.8713C28.9236 11.7867 28.8592 11.7063 28.7724 11.7063H28.4123C28.327 11.7063 28.2629 11.7843 28.2794 11.8681L28.5432 13.2043C28.5463 13.2196 28.5597 13.2307 28.5753 13.2307C28.5906 13.2307 28.6039 13.2201 28.6072 13.2051L28.9047 11.8713ZM23.7626 11.8695C23.7801 11.7853 23.7159 11.7063 23.6299 11.7063H23.2499C23.163 11.7063 23.0986 11.787 23.1178 11.8718L23.42 13.205C23.4234 13.22 23.4367 13.2307 23.4521 13.2307C23.4677 13.2307 23.4812 13.2197 23.4844 13.2045L23.7626 11.8695Z" fill="url(#paint16_linear_359_3981)"/>
<defs>
<linearGradient id="paint0_linear_359_3981" x1="19.8392" y1="19.6424" x2="18.9266" y2="43.4854" gradientUnits="userSpaceOnUse">
<stop stop-color="#FFE5CE"/>
<stop offset="1" stop-color="#FBCFA9"/>
</linearGradient>
<linearGradient id="paint1_linear_359_3981" x1="19.8392" y1="19.6424" x2="18.9266" y2="43.4854" gradientUnits="userSpaceOnUse">
<stop stop-color="#FFE5CE"/>
<stop offset="1" stop-color="#FBCFA9"/>
</linearGradient>
<linearGradient id="paint2_linear_359_3981" x1="19.8392" y1="19.6424" x2="18.9266" y2="43.4854" gradientUnits="userSpaceOnUse">
<stop stop-color="#FFE5CE"/>
<stop offset="1" stop-color="#FBCFA9"/>
</linearGradient>
<linearGradient id="paint3_linear_359_3981" x1="19.8392" y1="19.6424" x2="18.9266" y2="43.4854" gradientUnits="userSpaceOnUse">
<stop stop-color="#FFE5CE"/>
<stop offset="1" stop-color="#FBCFA9"/>
</linearGradient>
<linearGradient id="paint4_linear_359_3981" x1="19.8392" y1="19.6424" x2="18.9266" y2="43.4854" gradientUnits="userSpaceOnUse">
<stop stop-color="#FFE5CE"/>
<stop offset="1" stop-color="#FBCFA9"/>
</linearGradient>
<linearGradient id="paint5_linear_359_3981" x1="19.8392" y1="19.6424" x2="18.9266" y2="43.4854" gradientUnits="userSpaceOnUse">
<stop stop-color="#FFE5CE"/>
<stop offset="1" stop-color="#FBCFA9"/>
</linearGradient>
<linearGradient id="paint6_linear_359_3981" x1="30.3146" y1="19.5638" x2="34.0762" y2="40.2808" gradientUnits="userSpaceOnUse">
<stop stop-color="#F4CAAB"/>
<stop offset="1" stop-color="#EBB290"/>
</linearGradient>
<linearGradient id="paint7_linear_359_3981" x1="30.3146" y1="19.5638" x2="34.0762" y2="40.2808" gradientUnits="userSpaceOnUse">
<stop stop-color="#F4CAAB"/>
<stop offset="1" stop-color="#EBB290"/>
</linearGradient>
<linearGradient id="paint8_linear_359_3981" x1="30.3146" y1="19.5638" x2="34.0762" y2="40.2808" gradientUnits="userSpaceOnUse">
<stop stop-color="#F4CAAB"/>
<stop offset="1" stop-color="#EBB290"/>
</linearGradient>
<linearGradient id="paint9_linear_359_3981" x1="30.3146" y1="19.5638" x2="34.0762" y2="40.2808" gradientUnits="userSpaceOnUse">
<stop stop-color="#F4CAAB"/>
<stop offset="1" stop-color="#EBB290"/>
</linearGradient>
<linearGradient id="paint10_linear_359_3981" x1="30.3146" y1="19.5638" x2="34.0762" y2="40.2808" gradientUnits="userSpaceOnUse">
<stop stop-color="#F4CAAB"/>
<stop offset="1" stop-color="#EBB290"/>
</linearGradient>
<linearGradient id="paint11_linear_359_3981" x1="30.3146" y1="19.5638" x2="34.0762" y2="40.2808" gradientUnits="userSpaceOnUse">
<stop stop-color="#F4CAAB"/>
<stop offset="1" stop-color="#EBB290"/>
</linearGradient>
<linearGradient id="paint12_linear_359_3981" x1="30.3146" y1="19.5638" x2="34.0762" y2="40.2808" gradientUnits="userSpaceOnUse">
<stop stop-color="#F4CAAB"/>
<stop offset="1" stop-color="#EBB290"/>
</linearGradient>
<linearGradient id="paint13_linear_359_3981" x1="30.3146" y1="19.5638" x2="34.0762" y2="40.2808" gradientUnits="userSpaceOnUse">
<stop stop-color="#F4CAAB"/>
<stop offset="1" stop-color="#EBB290"/>
</linearGradient>
<linearGradient id="paint14_linear_359_3981" x1="13.0371" y1="25.8291" x2="9.95783" y2="33.3574" gradientUnits="userSpaceOnUse">
<stop stop-color="#639EFF"/>
<stop offset="1" stop-color="#4789FF"/>
</linearGradient>
<linearGradient id="paint15_linear_359_3981" x1="38.9017" y1="23.9228" x2="33.2974" y2="31.6538" gradientUnits="userSpaceOnUse">
<stop stop-color="#639EFF"/>
<stop offset="1" stop-color="#4789FF"/>
</linearGradient>
<linearGradient id="paint16_linear_359_3981" x1="20.8483" y1="8.59253" x2="31.4385" y2="13.7445" gradientUnits="userSpaceOnUse">
<stop stop-color="#5093FF"/>
<stop offset="1" stop-color="#3E72D3"/>
</linearGradient>
</defs>
</svg>
