<svg width="320" height="166" viewBox="0 0 320 166" fill="none" xmlns="http://www.w3.org/2000/svg">
<rect width="320" height="166" fill="white"/>
<path d="M260 18.0516C260 9.17987 254.408 2 247.497 2H172.503C165.604 2 160 9.19408 160 18.0516V154H260V18.0516Z" fill="#FAE100"/>
<path d="M160 154V18.0516C160 9.17987 165.592 2 172.503 2H247.497C254.396 2 260 9.19408 260 18.0516V154" stroke="#3B3E43" stroke-width="4" stroke-miterlimit="10"/>
<path d="M237.501 1.99994C237.501 6.7252 234.466 10.5607 230.727 10.5607H190.106C186.368 10.5607 183.333 6.7252 183.333 1.99994" fill="#3B3E43"/>
<g clip-path="url(#clip0_57_2996)">
<path d="M188.028 100.621L190.543 103.719L191.255 103.158L189.096 100.578L190.964 98.2456L190.251 97.7166L188.028 100.621ZM187.628 95.2875L186.721 95.4927V103.568H187.628V95.2875ZM191.717 102.035C191.717 103.05 192.322 103.654 193.326 103.654C193.898 103.654 194.621 103.395 195.183 102.942L195.291 103.568H195.96V99.8542C195.96 98.4291 195.301 97.7814 193.952 97.7814C193.337 97.7814 192.646 97.9757 192.073 98.2996L192.343 98.9366C192.808 98.7206 193.401 98.5587 193.93 98.5587C194.686 98.5587 195.086 98.915 195.086 99.811V100.275H193.952C192.495 100.275 191.717 100.88 191.717 102.035ZM193.488 102.92C192.905 102.92 192.581 102.586 192.581 101.992C192.581 101.258 193.045 100.912 194.071 100.912H195.086V102.273C194.708 102.64 194.017 102.92 193.488 102.92ZM198.86 100.621L201.375 103.719L202.088 103.158L199.928 100.578L201.796 98.2456L201.084 97.7166L198.86 100.621ZM198.46 95.2875L197.553 95.4927V103.568H198.46V95.2875ZM202.549 102.035C202.549 103.05 203.154 103.654 204.158 103.654C204.73 103.654 205.453 103.395 206.015 102.942L206.123 103.568H206.792V99.8542C206.792 98.4291 206.134 97.7814 204.784 97.7814C204.169 97.7814 203.478 97.9757 202.906 98.2996L203.175 98.9366C203.64 98.7206 204.233 98.5587 204.762 98.5587C205.518 98.5587 205.918 98.915 205.918 99.811V100.275H204.784C203.327 100.275 202.549 100.88 202.549 102.035ZM204.32 102.92C203.737 102.92 203.413 102.586 203.413 101.992C203.413 101.258 203.877 100.912 204.903 100.912H205.918V102.273C205.54 102.64 204.849 102.92 204.32 102.92ZM210.588 97.7814C209.022 97.7814 208.062 98.8394 208.062 100.739C208.062 102.629 209.012 103.676 210.588 103.676C212.175 103.676 213.114 102.629 213.114 100.739C213.114 98.8394 212.164 97.7814 210.588 97.7814ZM210.588 98.5263C211.592 98.5263 212.175 99.3036 212.175 100.739C212.175 102.175 211.592 102.931 210.588 102.931C209.584 102.931 209.001 102.175 209.001 100.739C209.001 99.3036 209.584 98.5263 210.588 98.5263ZM214.273 103.568H215.72V99.1849C216.054 99.0553 216.486 98.9689 216.789 98.9689C217.555 98.9689 217.793 99.2388 217.793 99.8758V103.568H219.239V99.919C219.239 98.4939 218.602 97.7058 217.328 97.7058C216.724 97.7058 216.022 97.9973 215.515 98.4507L215.299 97.8786H214.273V103.568ZM220.23 101.927C220.23 103.061 220.845 103.719 221.957 103.719C222.465 103.719 223.091 103.536 223.674 103.082L223.836 103.568H224.85V99.8974C224.85 98.4184 224.084 97.7058 222.626 97.7058C221.882 97.7058 221.072 97.9325 220.521 98.3104L220.921 99.3036C221.439 99.0337 221.925 98.9258 222.454 98.9258C223.307 98.9258 223.501 99.282 223.501 99.9082V100.103H222.594C221.05 100.103 220.23 100.729 220.23 101.927ZM222.249 102.596C221.774 102.596 221.536 102.326 221.536 101.916C221.536 101.344 221.946 101.031 222.724 101.031H223.501V102.143C223.242 102.37 222.745 102.596 222.249 102.596ZM225.449 98.0837L227.436 103.568H228.937L230.923 98.0729L229.509 97.6518L228.192 102.197L226.885 97.6734L225.449 98.0837ZM231.67 97.8786V103.568H233.117V97.8786H231.67ZM232.393 97.0797L233.451 96.0217L232.393 94.9529L231.335 96.0217L232.393 97.0797Z" fill="black"/>
<g clip-path="url(#clip1_57_2996)">
<path fill-rule="evenodd" clip-rule="evenodd" d="M197.424 66.4555C196.536 66.9775 195.815 68.238 195.815 69.2713V81.9585C195.815 82.9916 196.535 84.252 197.424 84.7743L208.185 91.0979C209.073 91.62 210.513 91.6203 211.402 91.0979L222.163 84.7743C223.052 84.2523 223.772 82.9918 223.772 81.9585V69.2713C223.772 68.2382 223.052 66.9778 222.163 66.4555L211.402 60.1318C210.514 59.6098 209.074 59.6095 208.185 60.1318L197.424 66.4555Z" fill="#1976D2"/>
<path d="M211.742 78.0948C211.742 78.3299 211.901 78.4182 212.098 78.2915L218.493 74.183C219.162 73.7526 219.153 73.0676 218.474 72.6542L212.105 68.7762C211.904 68.6542 211.742 68.7455 211.742 68.9811V71.9577H205.218C204.423 71.9577 203.779 72.6055 203.779 73.404V79.9664C203.779 80.2014 203.94 80.4922 204.14 80.6157L206.552 82.1112C206.751 82.2348 206.913 82.1454 206.913 81.9098V75.5302C206.913 75.2954 207.102 75.105 207.337 75.105H211.742V78.0948Z" fill="#FAE100"/>
</g>
</g>
<path d="M46 38C46 35.7909 47.7909 34 50 34H169C171.209 34 173 35.7909 173 38V70C173 72.2091 171.209 74 169 74H46V38Z" fill="url(#paint0_linear_57_2996)"/>
<path d="M92.6641 48.6016V60H90.4141V51.1953L87.7109 52.0547V50.2812L92.4219 48.6016H92.6641ZM98.7109 47.9922V60H96.4609V47.9922H98.7109ZM104.039 51.5469L100.367 55.7344L98.3984 57.7266L97.5781 56.1016L99.1406 54.1172L101.336 51.5469H104.039ZM101.703 60L99.2031 56.0938L100.758 54.7344L104.297 60H101.703ZM107.258 53.2969V60H105V51.5469H107.117L107.258 53.2969ZM106.945 55.4766H106.32C106.32 54.888 106.391 54.3464 106.531 53.8516C106.677 53.3516 106.888 52.9193 107.164 52.5547C107.445 52.1849 107.792 51.8984 108.203 51.6953C108.615 51.4922 109.091 51.3906 109.633 51.3906C110.008 51.3906 110.352 51.4479 110.664 51.5625C110.977 51.6719 111.245 51.8464 111.469 52.0859C111.698 52.3203 111.875 52.6276 112 53.0078C112.125 53.3828 112.188 53.8333 112.188 54.3594V60H109.938V54.6094C109.938 54.224 109.885 53.9271 109.781 53.7188C109.677 53.5104 109.529 53.3646 109.336 53.2812C109.148 53.1979 108.922 53.1562 108.656 53.1562C108.365 53.1562 108.109 53.2161 107.891 53.3359C107.677 53.4557 107.5 53.6224 107.359 53.8359C107.219 54.0443 107.115 54.2891 107.047 54.5703C106.979 54.8516 106.945 55.1536 106.945 55.4766ZM111.977 55.2188L111.172 55.3203C111.172 54.7682 111.24 54.2552 111.375 53.7812C111.516 53.3073 111.721 52.8906 111.992 52.5312C112.268 52.1719 112.609 51.8932 113.016 51.6953C113.422 51.4922 113.891 51.3906 114.422 51.3906C114.828 51.3906 115.198 51.4505 115.531 51.5703C115.865 51.6849 116.148 51.8698 116.383 52.125C116.622 52.375 116.805 52.7031 116.93 53.1094C117.06 53.5156 117.125 54.013 117.125 54.6016V60H114.867V54.6016C114.867 54.2109 114.815 53.9141 114.711 53.7109C114.612 53.5026 114.466 53.3594 114.273 53.2812C114.086 53.1979 113.862 53.1562 113.602 53.1562C113.331 53.1562 113.094 53.2109 112.891 53.3203C112.688 53.4245 112.518 53.5703 112.383 53.7578C112.247 53.9453 112.146 54.1641 112.078 54.4141C112.01 54.6589 111.977 54.9271 111.977 55.2188ZM128.184 46.608V55.152H130.328V46.608H128.184ZM129.704 50.112V51.84H132.264V50.112H129.704ZM125.464 55.424C122.408 55.424 120.44 56.56 120.44 58.432C120.44 60.32 122.408 61.44 125.464 61.44C128.504 61.44 130.472 60.32 130.472 58.432C130.472 56.56 128.504 55.424 125.464 55.424ZM125.464 57.12C127.336 57.12 128.376 57.536 128.376 58.432C128.376 59.312 127.336 59.744 125.464 59.744C123.576 59.744 122.536 59.312 122.536 58.432C122.536 57.536 123.576 57.12 125.464 57.12ZM119.144 52.688V54.384H120.376C123.72 54.384 125.432 54.32 127.24 53.92L127.032 52.224C125.256 52.608 123.64 52.688 120.376 52.688H119.144ZM119.144 47.6V53.84H121.256V49.296H125.768V47.6H119.144ZM145.258 58.2422V60H137.477V58.5L141.156 54.5547C141.526 54.1432 141.818 53.7812 142.031 53.4688C142.245 53.151 142.398 52.8672 142.492 52.6172C142.591 52.362 142.641 52.1198 142.641 51.8906C142.641 51.5469 142.583 51.2526 142.469 51.0078C142.354 50.7578 142.185 50.5651 141.961 50.4297C141.742 50.2943 141.471 50.2266 141.148 50.2266C140.805 50.2266 140.508 50.3099 140.258 50.4766C140.013 50.6432 139.826 50.875 139.695 51.1719C139.57 51.4688 139.508 51.8047 139.508 52.1797H137.25C137.25 51.5026 137.411 50.8828 137.734 50.3203C138.057 49.7526 138.513 49.3021 139.102 48.9688C139.69 48.6302 140.388 48.4609 141.195 48.4609C141.992 48.4609 142.664 48.5911 143.211 48.8516C143.763 49.1068 144.18 49.4766 144.461 49.9609C144.747 50.4401 144.891 51.013 144.891 51.6797C144.891 52.0547 144.831 52.4219 144.711 52.7812C144.591 53.1354 144.419 53.4896 144.195 53.8438C143.977 54.1927 143.711 54.5469 143.398 54.9062C143.086 55.2656 142.74 55.638 142.359 56.0234L140.383 58.2422H145.258ZM150.379 54.208V57.456H152.507V54.208H150.379ZM156.875 46.608V57.824H159.003V46.608H156.875ZM148.331 59.472V61.168H159.323V59.472H148.331ZM148.331 56.768V59.92H150.459V56.768H148.331ZM146.731 54.848C149.403 54.848 152.875 54.768 156.027 54.24L155.899 52.72C152.795 53.12 149.179 53.152 146.475 53.152L146.731 54.848ZM154.075 55.216V56.672H157.339V55.216H154.075ZM151.243 47.12C149.067 47.12 147.547 48.192 147.547 49.76C147.547 51.344 149.067 52.4 151.243 52.4C153.403 52.4 154.923 51.344 154.923 49.76C154.923 48.192 153.403 47.12 151.243 47.12ZM151.243 48.672C152.219 48.672 152.907 49.04 152.907 49.76C152.907 50.48 152.219 50.848 151.243 50.848C150.251 50.848 149.563 50.48 149.563 49.76C149.563 49.04 150.251 48.672 151.243 48.672Z" fill="white"/>
<path d="M79.4984 50.7454C79.5876 56.6881 75.8677 62.1297 70.2227 64.2942C64.5162 62.3003 60.6276 56.9759 60.5437 51.0311C60.5437 51.031 60.5437 51.0309 60.5437 51.0309L60.5 47.65C60.5 47.65 60.5 47.65 60.5 47.6499C60.4987 47.5448 60.5368 47.4431 60.6069 47.3647C60.6769 47.2864 60.7739 47.2371 60.8785 47.2267L60.8785 47.2268L60.8834 47.2262C63.9634 46.8899 66.8816 45.6747 69.29 43.7255C69.4669 43.5828 69.6864 43.5034 69.9136 43.5001C70.1409 43.4968 70.3628 43.5698 70.5437 43.7074C73.009 45.5836 75.9614 46.712 79.0496 46.9585L79.0496 46.9586L79.0604 46.9593C79.1647 46.9653 79.2627 47.0111 79.3344 47.0871C79.406 47.1632 79.4458 47.2638 79.4457 47.3683H79.4456L79.4457 47.377L79.4984 50.7454Z" fill="url(#paint1_linear_57_2996)" stroke="url(#paint2_linear_57_2996)"/>
<g filter="url(#filter0_i_57_2996)">
<path d="M70.3988 49.3177L73.9596 56.5803C73.9963 56.6549 74.0084 56.7391 73.9941 56.821C73.9798 56.9029 73.9399 56.9781 73.8801 57.0358C73.8203 57.0935 73.7438 57.1307 73.6615 57.1421C73.5791 57.1535 73.4953 57.1384 73.4221 57.0991L70.4299 55.5158C70.3247 55.4581 70.2066 55.4278 70.0865 55.4278C69.9665 55.4278 69.8484 55.4581 69.7431 55.5158L66.7945 57.1925C66.7236 57.2293 66.6432 57.2436 66.5639 57.2335C66.4847 57.2234 66.4104 57.1893 66.3511 57.1358C66.2917 57.0823 66.2501 57.012 66.2318 56.9342C66.2136 56.8565 66.2195 56.775 66.2487 56.7007L69.5813 49.3301C69.6173 49.2528 69.6744 49.1872 69.746 49.1409C69.8176 49.0945 69.9008 49.0692 69.9861 49.0679C70.0714 49.0666 70.1554 49.0894 70.2284 49.1335C70.3013 49.1777 70.3604 49.2415 70.3988 49.3177Z" fill="url(#paint3_radial_57_2996)"/>
</g>
<path d="M46.5 67L46.5 162" stroke="#3581FF" stroke-linecap="round" stroke-dasharray="0.1 2"/>
<path d="M6 160L314 160" stroke="#DFEBFF" stroke-width="12" stroke-linecap="round" stroke-linejoin="round"/>
<path d="M46 160C163.157 160 156.843 160 274 160" stroke="#619CFF" stroke-width="12" stroke-linecap="round"/>
<path opacity="0.7" d="M5 160L315 160" stroke="white" stroke-width="2" stroke-linecap="round" stroke-dasharray="4 6"/>
<circle cx="46" cy="160" r="4.5" fill="white" stroke="#619CFF" stroke-width="3"/>
<circle cx="274" cy="160" r="4.5" fill="white" stroke="#619CFF" stroke-width="3"/>
<path d="M89.2595 143.739C88.5643 149.764 85.0885 154.398 80.6857 154.398H74.8926C70.4899 154.398 67.014 149.764 66.3189 143.739H89.2595Z" fill="#131313"/>
<path d="M110.81 143.739C111.505 149.764 114.981 154.63 119.383 154.63H125.408V143.739H110.81Z" fill="#131313"/>
<path d="M145.105 143.739C145.8 149.764 149.276 154.63 153.679 154.63H159.704V143.739H145.105Z" fill="#131313"/>
<path d="M68.6357 146.055H160.862L169.204 141.884C170.131 141.421 170.594 140.494 170.594 139.799V117.553C170.594 115.699 169.667 114.077 168.045 113.382L165.728 112.223L162.252 107.821C155.996 99.9421 146.727 95.3076 136.763 95.3076H95.284C93.8936 95.3076 92.2716 96.0028 91.5764 97.1614L80.9171 111.992L69.0992 117.09C66.0868 118.48 64.0012 121.492 64.0012 124.968V141.189C64.0012 143.97 66.0868 146.055 68.6357 146.055Z" fill="url(#paint4_radial_57_2996)"/>
<path d="M90.8808 98.3196H121.005L111.041 112.223H80.9166L90.8808 98.3196Z" fill="url(#paint5_linear_57_2996)"/>
<path d="M126.799 98.3196H136.763C145.568 98.3196 154.142 102.491 159.472 109.442L159.935 109.906L157.386 111.296C156.228 111.991 154.606 112.223 153.215 112.223H116.835L126.799 98.3196Z" fill="url(#paint6_linear_57_2996)"/>
<path d="M170.594 117.553V139.799C170.594 140.726 170.131 141.421 169.436 141.884L161.094 146.055H68.6357C66.0868 146.055 64.0012 143.97 64.0012 141.421V129.371H102.931L105.248 124.737C107.565 120.102 112.432 117.321 117.529 117.321H151.129C154.605 117.321 157.849 116.626 160.862 115.004L165.96 112.455L168.277 113.614C169.667 114.309 170.594 115.931 170.594 117.553Z" fill="url(#paint7_linear_57_2996)"/>
<path d="M170.594 117.553V139.799C170.594 140.726 170.131 141.421 169.436 141.884L161.094 146.055H68.6357C66.0868 146.055 64.0012 143.97 64.0012 141.421V129.371H102.931L105.248 124.737C107.565 120.102 112.432 117.321 117.529 117.321H151.129C154.605 117.321 157.849 116.626 160.862 115.004L165.96 112.455L168.277 113.614C169.667 114.309 170.594 115.931 170.594 117.553Z" fill="url(#paint8_linear_57_2996)"/>
<path d="M105.248 124.736V129.37H92.5032C91.8081 129.37 91.3446 128.907 91.3446 128.212V125.894C91.3446 125.199 91.8081 124.736 92.5032 124.736H105.248Z" fill="url(#paint9_linear_57_2996)"/>
<path d="M68.6351 129.37H64.0006V124.736H68.6351C69.3303 124.736 69.7937 125.199 69.7937 125.894V128.212C69.7937 128.675 69.3303 129.37 68.6351 129.37Z" fill="url(#paint10_linear_57_2996)"/>
<path d="M159.703 154.398C155.096 154.398 151.361 148.485 151.361 141.19C151.361 133.895 155.096 127.982 159.703 127.982C164.31 127.982 168.045 133.895 168.045 141.19C168.045 148.485 164.31 154.398 159.703 154.398Z" fill="url(#paint11_linear_57_2996)"/>
<path d="M159.703 149.997C157.386 149.997 155.068 146.753 155.068 141.191C155.068 135.63 157.386 132.386 159.703 132.386C162.02 132.386 164.337 135.63 164.337 141.191C164.337 146.753 162.252 149.997 159.703 149.997Z" fill="#E6E6E6"/>
<path d="M159.703 148.372C157.849 148.372 156.227 145.591 156.227 141.189C156.227 136.786 157.849 134.005 159.703 134.005C161.557 134.005 163.179 136.786 163.179 141.189C163.179 145.591 161.557 148.372 159.703 148.372Z" fill="url(#paint12_linear_57_2996)"/>
<path d="M159.703 143.971C159.008 143.971 158.313 142.813 158.313 141.191C158.313 139.337 159.008 138.41 159.703 138.41C160.399 138.41 161.094 139.569 161.094 141.191C161.094 143.044 160.399 143.971 159.703 143.971Z" fill="#E6E6E6"/>
<path d="M125.409 154.398C120.802 154.398 117.067 148.485 117.067 141.19C117.067 133.895 120.802 127.982 125.409 127.982C130.017 127.982 133.751 133.895 133.751 141.19C133.751 148.485 130.017 154.398 125.409 154.398Z" fill="url(#paint13_linear_57_2996)"/>
<path d="M125.409 149.997C123.092 149.997 120.775 146.753 120.775 141.191C120.775 135.63 123.092 132.386 125.409 132.386C127.726 132.386 130.044 135.63 130.044 141.191C130.044 146.753 127.958 149.997 125.409 149.997Z" fill="#E6E6E6"/>
<path d="M125.409 148.372C123.555 148.372 121.933 145.591 121.933 141.189C121.933 136.786 123.555 134.005 125.409 134.005C127.263 134.005 128.885 136.786 128.885 141.189C128.885 145.591 127.263 148.372 125.409 148.372Z" fill="url(#paint14_linear_57_2996)"/>
<path d="M125.41 143.971C124.715 143.971 124.019 142.813 124.019 141.191C124.019 139.337 124.715 138.41 125.41 138.41C126.105 138.41 126.8 139.568 126.8 141.191C126.8 143.044 126.105 143.971 125.41 143.971Z" fill="#E6E6E6"/>
<path d="M105.248 124.736H108.724C109.419 124.736 109.883 125.199 109.883 125.894V128.212C109.883 128.907 109.419 129.37 108.724 129.37H102.931L105.248 124.736Z" fill="url(#paint15_linear_57_2996)"/>
<path d="M133.055 120.799H136.995C137.227 120.799 137.458 120.567 137.458 120.335V119.872C137.458 119.64 137.227 119.408 136.995 119.408H133.055C132.824 119.408 132.592 119.64 132.592 119.872V120.335C132.824 120.567 132.824 120.799 133.055 120.799Z" fill="url(#paint16_linear_57_2996)"/>
<path d="M153.215 120.799H157.154C157.386 120.799 157.618 120.567 157.618 120.335V119.872C157.618 119.64 157.386 119.408 157.154 119.408H153.215C152.983 119.408 152.751 119.64 152.751 119.872V120.335C152.751 120.567 152.983 120.799 153.215 120.799Z" fill="url(#paint17_linear_57_2996)"/>
<defs>
<filter id="filter0_i_57_2996" x="66.2214" y="49.0679" width="7.77856" height="9.16876" filterUnits="userSpaceOnUse" color-interpolation-filters="sRGB">
<feFlood flood-opacity="0" result="BackgroundImageFix"/>
<feBlend mode="normal" in="SourceGraphic" in2="BackgroundImageFix" result="shape"/>
<feColorMatrix in="SourceAlpha" type="matrix" values="0 0 0 0 0 0 0 0 0 0 0 0 0 0 0 0 0 0 127 0" result="hardAlpha"/>
<feOffset dy="1"/>
<feGaussianBlur stdDeviation="0.5"/>
<feComposite in2="hardAlpha" operator="arithmetic" k2="-1" k3="1"/>
<feColorMatrix type="matrix" values="0 0 0 0 0 0 0 0 0 0 0 0 0 0 0 0 0 0 0.15 0"/>
<feBlend mode="normal" in2="shape" result="effect1_innerShadow_57_2996"/>
</filter>
<linearGradient id="paint0_linear_57_2996" x1="109.5" y1="34" x2="109.5" y2="74" gradientUnits="userSpaceOnUse">
<stop stop-color="#3A84FF"/>
<stop offset="1" stop-color="#397CEA"/>
</linearGradient>
<linearGradient id="paint1_linear_57_2996" x1="69.9475" y1="45.066" x2="70.2456" y2="64.9325" gradientUnits="userSpaceOnUse">
<stop offset="0.0989583" stop-color="#FFE51B"/>
<stop offset="0.328125" stop-color="#FFDC29"/>
<stop offset="0.692708" stop-color="#FED728"/>
<stop offset="0.96875" stop-color="#FFCC33"/>
</linearGradient>
<linearGradient id="paint2_linear_57_2996" x1="70" y1="43" x2="70" y2="64.8276" gradientUnits="userSpaceOnUse">
<stop stop-color="#FFCB11"/>
<stop offset="1" stop-color="#F8B509"/>
</linearGradient>
<radialGradient id="paint3_radial_57_2996" cx="0" cy="0" r="1" gradientUnits="userSpaceOnUse" gradientTransform="translate(70.1108 52.0137) rotate(33.8112) scale(5.50487 5.17361)">
<stop stop-color="#5E9AFF"/>
<stop offset="1" stop-color="#3581FF"/>
</radialGradient>
<radialGradient id="paint4_radial_57_2996" cx="0" cy="0" r="1" gradientUnits="userSpaceOnUse" gradientTransform="translate(118.647 144.666) rotate(-90) scale(54.5107 60.0054)">
<stop offset="0.3364" stop-color="#FCFCFC"/>
<stop offset="0.6393" stop-color="#FAFAFB"/>
<stop offset="0.8356" stop-color="#F1F2F4"/>
<stop offset="0.9232" stop-color="#EAECEE"/>
<stop offset="1" stop-color="#DFE2E6"/>
</radialGradient>
<linearGradient id="paint5_linear_57_2996" x1="100.942" y1="99.1661" x2="100.942" y2="110.954" gradientUnits="userSpaceOnUse">
<stop/>
<stop offset="0.1991" stop-color="#0B0B0C"/>
<stop offset="0.5591" stop-color="#27282C"/>
<stop offset="1" stop-color="#51545B"/>
</linearGradient>
<linearGradient id="paint6_linear_57_2996" x1="138.473" y1="99.1661" x2="138.473" y2="110.954" gradientUnits="userSpaceOnUse">
<stop/>
<stop offset="0.1991" stop-color="#0B0B0C"/>
<stop offset="0.5591" stop-color="#27282C"/>
<stop offset="1" stop-color="#51545B"/>
</linearGradient>
<linearGradient id="paint7_linear_57_2996" x1="170.594" y1="129.169" x2="63.345" y2="129.169" gradientUnits="userSpaceOnUse">
<stop stop-color="#9298A8"/>
<stop offset="0.0197832" stop-color="#ACB1BD"/>
<stop offset="0.037751" stop-color="#BDC0CA"/>
<stop offset="0.0513365" stop-color="#C3C6CF"/>
<stop offset="0.1128" stop-color="#CDD0D7"/>
<stop offset="0.2179" stop-color="#D8DBE0"/>
<stop offset="0.3328" stop-color="#DCDEE3"/>
<stop offset="0.5217" stop-color="#E1E3E6"/>
<stop offset="0.7456" stop-color="#EFF0F0"/>
<stop offset="0.7651" stop-color="#F1F1F1"/>
<stop offset="0.9469" stop-color="#EEEFF2"/>
<stop offset="0.9625" stop-color="#E9EAEE"/>
<stop offset="0.9809" stop-color="#DBDDE2"/>
<stop offset="1" stop-color="#C4C7CF"/>
</linearGradient>
<linearGradient id="paint8_linear_57_2996" x1="117.298" y1="146.103" x2="117.298" y2="132.716" gradientUnits="userSpaceOnUse">
<stop offset="0.0597438" stop-color="#9196A7"/>
<stop offset="0.2389" stop-color="#9196A7" stop-opacity="0.2"/>
<stop offset="0.7186" stop-color="#9196A7" stop-opacity="0"/>
</linearGradient>
<linearGradient id="paint9_linear_57_2996" x1="105.331" y1="126.944" x2="91.4273" y2="126.944" gradientUnits="userSpaceOnUse">
<stop stop-color="#848EA3"/>
<stop offset="1" stop-color="#9DA5B6"/>
</linearGradient>
<linearGradient id="paint10_linear_57_2996" x1="64.1415" y1="126.944" x2="66.6457" y2="126.944" gradientUnits="userSpaceOnUse">
<stop stop-color="#848EA3"/>
<stop offset="1" stop-color="#9DA5B6"/>
</linearGradient>
<linearGradient id="paint11_linear_57_2996" x1="159.749" y1="153.445" x2="159.749" y2="140.108" gradientUnits="userSpaceOnUse">
<stop offset="0.000575032" stop-color="#323232"/>
<stop offset="1" stop-color="#191919"/>
</linearGradient>
<linearGradient id="paint12_linear_57_2996" x1="156.483" y1="136.625" x2="160.704" y2="142.562" gradientUnits="userSpaceOnUse">
<stop stop-color="#8289A3"/>
<stop offset="0.2283" stop-color="#8F96AF" stop-opacity="0.7717"/>
<stop offset="0.653" stop-color="#B3B8CF" stop-opacity="0.347"/>
<stop offset="1" stop-color="#D4D8ED" stop-opacity="0"/>
</linearGradient>
<linearGradient id="paint13_linear_57_2996" x1="125.456" y1="153.445" x2="125.456" y2="140.108" gradientUnits="userSpaceOnUse">
<stop offset="0.000575032" stop-color="#323232"/>
<stop offset="1" stop-color="#191919"/>
</linearGradient>
<linearGradient id="paint14_linear_57_2996" x1="122.189" y1="136.625" x2="126.41" y2="142.561" gradientUnits="userSpaceOnUse">
<stop stop-color="#8289A3"/>
<stop offset="0.2283" stop-color="#8F96AF" stop-opacity="0.7717"/>
<stop offset="0.653" stop-color="#B3B8CF" stop-opacity="0.347"/>
<stop offset="1" stop-color="#D4D8ED" stop-opacity="0"/>
</linearGradient>
<linearGradient id="paint15_linear_57_2996" x1="112.995" y1="131.257" x2="105.464" y2="126.954" gradientUnits="userSpaceOnUse">
<stop stop-color="#5E6C7D"/>
<stop offset="1" stop-color="#3D485B"/>
</linearGradient>
<linearGradient id="paint16_linear_57_2996" x1="137.563" y1="120.133" x2="132.743" y2="120.133" gradientUnits="userSpaceOnUse">
<stop stop-color="#757F97" stop-opacity="0.4"/>
<stop offset="0.4982" stop-color="#757F97" stop-opacity="0.3"/>
<stop offset="1" stop-color="#757F97" stop-opacity="0.5"/>
</linearGradient>
<linearGradient id="paint17_linear_57_2996" x1="157.512" y1="120.133" x2="152.692" y2="120.133" gradientUnits="userSpaceOnUse">
<stop stop-color="#757F97" stop-opacity="0.4"/>
<stop offset="0.4982" stop-color="#757F97" stop-opacity="0.3"/>
<stop offset="1" stop-color="#757F97" stop-opacity="0.5"/>
</linearGradient>
<clipPath id="clip0_57_2996">
<rect width="48.806" height="49.6078" fill="white" transform="translate(185.355 59.1028)"/>
</clipPath>
<clipPath id="clip1_57_2996">
<rect width="31.7494" height="31.7494" fill="white" transform="translate(193.828 59.7383)"/>
</clipPath>
</defs>
</svg>
