<svg width="52" height="52" viewBox="0 0 52 52" fill="none" xmlns="http://www.w3.org/2000/svg">
<g clip-path="url(#clip0_359_3989)">
<path d="M26.5 38C35.6127 38 42.9999 30.6127 42.9999 21.5C42.9999 12.3873 35.6127 5.00003 26.5 5.00003C17.3873 5.00003 10 12.3873 10 21.5C10 30.6127 17.3873 38 26.5 38Z" fill="url(#paint0_linear_359_3989)"/>
<path d="M34.6948 29.6675C30.1848 34.1775 22.8423 34.1775 18.3323 29.6675C13.8223 25.1575 13.8223 17.815 18.3323 13.305C22.8423 8.795 30.1848 8.795 34.6948 13.305C39.2048 17.815 39.2048 25.1575 34.6948 29.6675ZM35.9873 30.96C41.2123 25.735 41.2123 17.2375 35.9873 12.0125C30.7623 6.7875 22.2648 6.7875 17.0398 12.0125C11.8148 17.2375 11.8148 25.735 17.0398 30.96C22.2648 36.1849 30.7348 36.2125 35.9873 30.96Z" fill="url(#paint1_linear_359_3989)"/>
<path d="M26.5002 33.352C33.0461 33.352 38.3527 28.0455 38.3527 21.4995C38.3527 14.9536 33.0461 9.64706 26.5002 9.64706C19.9542 9.64706 14.6477 14.9536 14.6477 21.4995C14.6477 28.0455 19.9542 33.352 26.5002 33.352Z" fill="url(#paint2_linear_359_3989)"/>
<path d="M42.9999 21.5C42.9999 12.3975 35.6024 5 26.5 5C21.88 5 17.7275 6.8975 14.73 9.94999C17.7 7.035 21.77 5.22 26.28 5.22C35.3824 5.22 42.7799 12.6175 42.7799 21.72C42.7799 26.23 40.9649 30.3 38.0499 33.2699C41.1024 30.2725 42.9999 26.12 42.9999 21.5Z" fill="url(#paint3_linear_359_3989)"/>
<path d="M10.2473 21.2529C10.2473 16.7429 12.0623 12.6729 14.9773 9.70294C11.9248 12.7004 10.0273 16.8529 10.0273 21.4729C10.0273 30.5754 17.4248 37.9729 26.5273 37.9729C31.1473 37.9729 35.2998 36.0754 38.2973 33.0229C35.3273 35.9379 31.2573 37.7529 26.7473 37.7529C17.6173 37.7529 10.2473 30.3829 10.2473 21.2529Z" fill="#FFC500"/>
<path d="M38.3523 21.4995C38.3523 14.9546 33.0448 9.64706 26.4999 9.64706C23.1999 9.64706 20.2024 10.9946 18.0574 13.1946C20.2024 11.0771 23.1449 9.78456 26.3899 9.78456C32.9348 9.78456 38.2423 15.0921 38.2423 21.637C38.2423 24.882 36.9498 27.8245 34.8323 29.9695C37.0048 27.797 38.3523 24.7995 38.3523 21.4995Z" fill="url(#paint4_linear_359_3989)"/>
<path d="M14.6477 21.4998C14.6477 28.0448 19.9552 33.3522 26.5002 33.3522C29.8002 33.3522 32.7977 32.0048 34.9427 29.8048C32.7977 31.9223 29.8552 33.2147 26.6102 33.2147C20.0652 33.2147 14.7577 27.9073 14.7577 21.3623C14.7577 18.1173 16.0502 15.1748 18.1677 13.0298C15.9952 15.2023 14.6477 18.1723 14.6477 21.4998Z" fill="#FFC800"/>
<path d="M41.5466 42.095H10.4534C10.1943 42.095 10 41.9617 10 41.7839V38.4061C10 38.2284 10.1943 38.095 10.4534 38.095H41.5466C41.8057 38.095 42 38.2284 42 38.4061V41.7839C42 41.9395 41.8057 42.095 41.5466 42.095Z" fill="url(#paint5_linear_359_3989)"/>
<path d="M11.9111 38.8952V41.2952" stroke="#EFA100" stroke-width="0.230161" stroke-miterlimit="10"/>
<path d="M13.239 38.8952V41.2952" stroke="#EFA100" stroke-width="0.230161" stroke-miterlimit="10"/>
<path d="M14.5991 38.8952V41.2952" stroke="#EFA100" stroke-width="0.230161" stroke-miterlimit="10"/>
<path d="M15.9272 38.8952V41.2952" stroke="#EFA100" stroke-width="0.230161" stroke-miterlimit="10"/>
<path d="M17.2876 38.8952V41.2952" stroke="#EFA100" stroke-width="0.230161" stroke-miterlimit="10"/>
<path d="M18.6155 38.8952V41.2952" stroke="#EFA100" stroke-width="0.230161" stroke-miterlimit="10"/>
<path d="M19.9434 38.8952V41.2952" stroke="#EFA100" stroke-width="0.230161" stroke-miterlimit="10"/>
<path d="M21.3037 38.8952V41.2952" stroke="#EFA100" stroke-width="0.230161" stroke-miterlimit="10"/>
<path d="M22.6316 38.8952V41.2952" stroke="#EFA100" stroke-width="0.230161" stroke-miterlimit="10"/>
<path d="M23.9597 38.8952V41.2952" stroke="#EFA100" stroke-width="0.230161" stroke-miterlimit="10"/>
<path d="M25.3201 38.8952V41.2952" stroke="#EFA100" stroke-width="0.230161" stroke-miterlimit="10"/>
<path d="M26.6477 38.8952V41.2952" stroke="#EFA100" stroke-width="0.230161" stroke-miterlimit="10"/>
<path d="M28.0083 38.8952V41.2952" stroke="#EFA100" stroke-width="0.230161" stroke-miterlimit="10"/>
<path d="M29.3362 38.8952V41.2952" stroke="#EFA100" stroke-width="0.230161" stroke-miterlimit="10"/>
<path d="M30.6643 38.8952V41.2952" stroke="#EFA100" stroke-width="0.230161" stroke-miterlimit="10"/>
<path d="M32.0244 38.8952V41.2952" stroke="#EFA100" stroke-width="0.230161" stroke-miterlimit="10"/>
<path d="M33.3525 38.8952V41.2952" stroke="#EFA100" stroke-width="0.230161" stroke-miterlimit="10"/>
<path d="M34.6802 38.8952V41.2952" stroke="#EFA100" stroke-width="0.230161" stroke-miterlimit="10"/>
<path d="M36.0405 38.8952V41.2952" stroke="#EFA100" stroke-width="0.230161" stroke-miterlimit="10"/>
<path d="M37.3684 38.8952V41.2952" stroke="#EFA100" stroke-width="0.230161" stroke-miterlimit="10"/>
<path d="M38.7288 38.8952V41.2952" stroke="#EFA100" stroke-width="0.230161" stroke-miterlimit="10"/>
<path d="M40.0569 38.8952V41.2952" stroke="#EFA100" stroke-width="0.230161" stroke-miterlimit="10"/>
<path d="M41.5466 46.0944H10.4534C10.1943 46.0944 10 45.9611 10 45.7833V42.4055C10 42.2278 10.1943 42.0944 10.4534 42.0944H41.5466C41.8057 42.0944 42 42.2278 42 42.4055V45.7833C42 45.9389 41.8057 46.0944 41.5466 46.0944Z" fill="url(#paint6_linear_359_3989)"/>
<path d="M11.9111 42.8947V45.2947" stroke="#EFA100" stroke-width="0.230161" stroke-miterlimit="10"/>
<path d="M13.239 42.8947V45.2947" stroke="#EFA100" stroke-width="0.230161" stroke-miterlimit="10"/>
<path d="M14.5991 42.8947V45.2947" stroke="#EFA100" stroke-width="0.230161" stroke-miterlimit="10"/>
<path d="M15.9272 42.8947V45.2947" stroke="#EFA100" stroke-width="0.230161" stroke-miterlimit="10"/>
<path d="M17.2876 42.8947V45.2947" stroke="#EFA100" stroke-width="0.230161" stroke-miterlimit="10"/>
<path d="M18.6155 42.8947V45.2947" stroke="#EFA100" stroke-width="0.230161" stroke-miterlimit="10"/>
<path d="M19.9434 42.8947V45.2947" stroke="#EFA100" stroke-width="0.230161" stroke-miterlimit="10"/>
<path d="M21.3037 42.8947V45.2947" stroke="#EFA100" stroke-width="0.230161" stroke-miterlimit="10"/>
<path d="M22.6316 42.8947V45.2947" stroke="#EFA100" stroke-width="0.230161" stroke-miterlimit="10"/>
<path d="M23.9597 42.8947V45.2947" stroke="#EFA100" stroke-width="0.230161" stroke-miterlimit="10"/>
<path d="M25.3201 42.8947V45.2947" stroke="#EFA100" stroke-width="0.230161" stroke-miterlimit="10"/>
<path d="M26.6477 42.8947V45.2947" stroke="#EFA100" stroke-width="0.230161" stroke-miterlimit="10"/>
<path d="M28.0083 42.8947V45.2947" stroke="#EFA100" stroke-width="0.230161" stroke-miterlimit="10"/>
<path d="M29.3362 42.8947V45.2947" stroke="#EFA100" stroke-width="0.230161" stroke-miterlimit="10"/>
<path d="M30.6643 42.8947V45.2947" stroke="#EFA100" stroke-width="0.230161" stroke-miterlimit="10"/>
<path d="M32.0244 42.8947V45.2947" stroke="#EFA100" stroke-width="0.230161" stroke-miterlimit="10"/>
<path d="M33.3525 42.8947V45.2947" stroke="#EFA100" stroke-width="0.230161" stroke-miterlimit="10"/>
<path d="M34.6802 42.8947V45.2947" stroke="#EFA100" stroke-width="0.230161" stroke-miterlimit="10"/>
<path d="M36.0405 42.8947V45.2947" stroke="#EFA100" stroke-width="0.230161" stroke-miterlimit="10"/>
<path d="M37.3684 42.8947V45.2947" stroke="#EFA100" stroke-width="0.230161" stroke-miterlimit="10"/>
<path d="M38.7288 42.8947V45.2947" stroke="#EFA100" stroke-width="0.230161" stroke-miterlimit="10"/>
<path d="M40.0569 42.8947V45.2947" stroke="#EFA100" stroke-width="0.230161" stroke-miterlimit="10"/>
<path d="M29.9631 20.6113L48.296 31.1958C48.836 31.5076 49.021 32.1981 48.7092 32.7381L47.5577 34.7325C47.246 35.2725 46.5555 35.4575 46.0155 35.1458L27.6826 24.5613L29.9631 20.6113Z" fill="url(#paint7_linear_359_3989)"/>
<path opacity="0.1" fill-rule="evenodd" clip-rule="evenodd" d="M31.4738 21.4843L29.1933 25.4342L27.6829 24.5622L29.9634 20.6122L31.4738 21.4843Z" fill="black"/>
<rect x="26.2834" y="15.0748" width="7.13863" height="10.4981" transform="rotate(30 26.2834 15.0748)" fill="url(#paint8_linear_359_3989)"/>
<rect opacity="0.1" x="26.2834" y="15.0748" width="7.13863" height="10.4981" rx="0.427736" transform="rotate(30 26.2834 15.0748)" fill="url(#paint9_linear_359_3989)"/>
<path opacity="0.1" fill-rule="evenodd" clip-rule="evenodd" d="M32.2796 18.966L26.0973 15.3967L26.2834 15.0743L32.4657 18.6437L32.2796 18.966Z" fill="black"/>
<path opacity="0.1" fill-rule="evenodd" clip-rule="evenodd" d="M27.3973 27.422L27.2163 27.7355L21.0341 24.1662L21.2151 23.8527L27.3973 27.422Z" fill="black"/>
<rect x="25.9143" y="11.1299" width="11.7247" height="3.25685" rx="0.427736" transform="rotate(30 25.9143 11.1299)" fill="url(#paint10_linear_359_3989)"/>
<rect opacity="0.1" x="25.9143" y="11.1299" width="11.7247" height="3.25685" rx="0.427736" transform="rotate(30 25.9143 11.1299)" fill="url(#paint11_linear_359_3989)"/>
<rect x="19.0747" y="22.9734" width="11.7247" height="3.25685" rx="0.427736" transform="rotate(30 19.0747 22.9734)" fill="url(#paint12_linear_359_3989)"/>
<rect opacity="0.1" x="19.0747" y="22.9734" width="11.7247" height="3.25685" rx="0.427736" transform="rotate(30 19.0747 22.9734)" fill="url(#paint13_linear_359_3989)"/>
</g>
<defs>
<linearGradient id="paint0_linear_359_3989" x1="39.4146" y1="11.4044" x2="1.80635" y2="40.7823" gradientUnits="userSpaceOnUse">
<stop offset="0.00927982" stop-color="#FFEA2F"/>
<stop offset="1" stop-color="#FFCF2E"/>
</linearGradient>
<linearGradient id="paint1_linear_359_3989" x1="17.8423" y1="29.5009" x2="31.5596" y2="16.8125" gradientUnits="userSpaceOnUse">
<stop stop-color="#FFF182"/>
<stop offset="1" stop-color="#FBB122"/>
</linearGradient>
<linearGradient id="paint2_linear_359_3989" x1="30.0182" y1="17.1901" x2="15.0028" y2="35.5518" gradientUnits="userSpaceOnUse">
<stop stop-color="#FFE35B"/>
<stop offset="1" stop-color="#FFCA31"/>
</linearGradient>
<linearGradient id="paint3_linear_359_3989" x1="38.6376" y1="9.73027" x2="24.3814" y2="23.5456" gradientUnits="userSpaceOnUse">
<stop stop-color="#FFF280"/>
<stop offset="1" stop-color="#FFF280"/>
</linearGradient>
<linearGradient id="paint4_linear_359_3989" x1="18.0541" y1="19.7849" x2="38.3592" y2="19.7849" gradientUnits="userSpaceOnUse">
<stop stop-color="#FFF280"/>
<stop offset="1" stop-color="#FFF280"/>
</linearGradient>
<linearGradient id="paint5_linear_359_3989" x1="25.9829" y1="37.9971" x2="25.9829" y2="41.6372" gradientUnits="userSpaceOnUse">
<stop offset="0.2238" stop-color="#FFE928"/>
<stop offset="0.3165" stop-color="#FFCE3A"/>
<stop offset="0.869792" stop-color="#FFCC2F"/>
<stop offset="0.9795" stop-color="#F8A516"/>
</linearGradient>
<linearGradient id="paint6_linear_359_3989" x1="25.9829" y1="41.9965" x2="25.9829" y2="45.6366" gradientUnits="userSpaceOnUse">
<stop offset="0.2238" stop-color="#FFE928"/>
<stop offset="0.3165" stop-color="#FFCE3A"/>
<stop offset="0.869792" stop-color="#FFCC2F"/>
<stop offset="0.9795" stop-color="#F8A516"/>
</linearGradient>
<linearGradient id="paint7_linear_359_3989" x1="39.954" y1="26.5886" x2="37.8325" y2="30.2309" gradientUnits="userSpaceOnUse">
<stop stop-color="#5D96FB"/>
<stop offset="0.447917" stop-color="#5D99FD"/>
<stop offset="1" stop-color="#3A7AED"/>
</linearGradient>
<linearGradient id="paint8_linear_359_3989" x1="26.4535" y1="18.9649" x2="33.3882" y2="18.9399" gradientUnits="userSpaceOnUse">
<stop stop-color="#72A4FF"/>
<stop offset="1" stop-color="#4481EE"/>
</linearGradient>
<linearGradient id="paint9_linear_359_3989" x1="26.4535" y1="18.9649" x2="33.3882" y2="18.9399" gradientUnits="userSpaceOnUse">
<stop offset="0.0729167" stop-color="white" stop-opacity="0"/>
<stop offset="0.244792" stop-color="white"/>
<stop offset="0.40625" stop-color="white" stop-opacity="0"/>
</linearGradient>
<linearGradient id="paint10_linear_359_3989" x1="26.1936" y1="12.3367" x2="37.5793" y2="12.1196" gradientUnits="userSpaceOnUse">
<stop stop-color="#72A4FF"/>
<stop offset="1" stop-color="#4481EE"/>
</linearGradient>
<linearGradient id="paint11_linear_359_3989" x1="26.1936" y1="12.3367" x2="37.5793" y2="12.1196" gradientUnits="userSpaceOnUse">
<stop offset="0.078125" stop-color="white" stop-opacity="0"/>
<stop offset="0.197917" stop-color="white"/>
<stop offset="0.364583" stop-color="white" stop-opacity="0"/>
</linearGradient>
<linearGradient id="paint12_linear_359_3989" x1="19.354" y1="24.1803" x2="30.7397" y2="23.9632" gradientUnits="userSpaceOnUse">
<stop stop-color="#72A4FF"/>
<stop offset="1" stop-color="#4481EE"/>
</linearGradient>
<linearGradient id="paint13_linear_359_3989" x1="19.354" y1="24.1803" x2="30.7397" y2="23.9632" gradientUnits="userSpaceOnUse">
<stop offset="0.078125" stop-color="white" stop-opacity="0"/>
<stop offset="0.197917" stop-color="white"/>
<stop offset="0.364583" stop-color="white" stop-opacity="0"/>
</linearGradient>
<clipPath id="clip0_359_3989">
<rect width="52" height="52" fill="white"/>
</clipPath>
</defs>
</svg>
