<svg width="48" height="49" viewBox="0 0 48 49" fill="none" xmlns="http://www.w3.org/2000/svg">
<path d="M23.8273 43.9615C13.7602 40.3302 7 30.8073 7 20.2693V14.5137C7 13.7079 7.61742 13.0381 8.43367 12.9544C13.53 12.473 18.3647 10.5475 22.4146 7.38715C22.8646 7.03135 23.4297 6.83252 24.0052 6.83252C24.5808 6.83252 25.1459 7.03135 25.5959 7.38715C29.6353 10.5475 34.47 12.473 39.5663 12.9544C40.3826 13.0277 41 13.6974 41 14.5137V20.2797C41 30.8177 34.2398 40.3407 24.1727 43.9719L23.9948 44.0347L23.8169 43.9719L23.8273 43.9615Z" fill="url(#paint0_linear_465_4030)"/>
<path d="M8.4862 13.2684C7.94203 13.3207 7.52344 13.7602 7.52344 14.3044V20.0705C7.52344 30.4306 14.1058 39.6919 24.0054 43.2708C33.9051 39.7023 40.4874 30.441 40.4874 20.0705V14.3044C40.4874 13.7602 40.0688 13.3207 39.5247 13.2684C34.1772 12.7661 29.2797 10.7254 25.2717 7.586C24.5287 6.99998 23.4717 6.99998 22.7287 7.586C18.7312 10.715 13.8337 12.7661 8.4862 13.2684Z" fill="url(#paint1_linear_465_4030)"/>
<path d="M23.1576 40.6652C14.9323 37.0026 9.61621 28.9133 9.61621 20.0601V15.7277C9.61621 15.4766 9.79411 15.2568 10.0453 15.215L11.322 14.9743C15.4451 14.1999 19.3589 12.5464 22.8018 10.1395L23.7018 9.51166C23.8797 9.38609 24.1204 9.38609 24.2983 9.51166L25.2087 10.15C28.6516 12.5569 32.5654 14.2103 36.6885 14.9847L37.9652 15.2254C38.2164 15.2673 38.3943 15.487 38.3943 15.7382V20.0706C38.3943 28.9238 33.0782 37.0026 24.8529 40.6652L24.0053 41.042L23.1576 40.6652Z" fill="url(#paint2_linear_465_4030)"/>
<path d="M23.3671 40.1836C15.3302 36.6046 10.1396 28.7037 10.1396 20.0599V15.7274L11.4163 15.4868C15.6441 14.6914 19.5789 13.038 23.1055 10.5683L24.0055 9.94043L24.9054 10.5788C28.432 13.0485 32.3563 14.7019 36.5841 15.4972L37.8608 15.7379V20.0703C37.8608 28.7142 32.6703 36.6151 24.6333 40.194L23.995 40.4766L23.3566 40.194L23.3671 40.1836Z" fill="url(#paint3_linear_465_4030)"/>
<path opacity="0.9" d="M37.9652 15.2147L36.6885 14.974C32.5654 14.1996 28.6516 12.5462 25.2087 10.1393L24.2983 9.50092C24.1204 9.37534 23.8797 9.37534 23.7018 9.50092L22.8018 10.1288C19.3589 12.5357 15.4451 14.1891 11.322 14.9635L10.0453 15.2042C9.79411 15.2461 9.61621 15.4658 9.61621 15.717V20.0494C9.61621 28.9026 14.9323 36.9814 23.1576 40.644L24.0053 41.0208L24.8529 40.644C33.0782 36.9814 38.3943 28.8921 38.3943 20.0494V15.717C38.3943 15.4658 38.2164 15.2461 37.9652 15.2042V15.2147ZM37.8711 20.0599C37.8711 28.7038 32.6805 36.6046 24.6436 40.1836L24.0053 40.4661L23.3669 40.1836C15.33 36.6046 10.1394 28.7038 10.1394 20.0599V15.7275L11.4161 15.4868C15.6439 14.6914 19.5787 13.038 23.1053 10.5683L24.0053 9.94044L24.9052 10.5788C28.4318 13.0485 32.3561 14.7019 36.5839 15.4972L37.8606 15.7379V20.0703L37.8711 20.0599Z" fill="url(#paint4_linear_465_4030)"/>
<path opacity="0.9" d="M37.8713 15.7275L36.5946 15.4868C32.3669 14.6914 28.4321 13.038 24.916 10.5683L24.016 9.92998L23.116 10.5579C19.5894 13.0275 15.6651 14.681 11.4269 15.4763L10.1502 15.717H9.62695C9.62695 15.4658 9.80485 15.2461 10.056 15.2042L11.3327 14.9635C15.4558 14.1891 19.3696 12.5357 22.8125 10.1288L23.7125 9.50092C23.8904 9.37534 24.1311 9.37534 24.309 9.50092L25.2194 10.1393C28.6623 12.5462 32.5762 14.1996 36.6993 14.974L37.976 15.2147C38.2271 15.2565 38.405 15.4763 38.405 15.7275H37.8818H37.8713Z" fill="#B1B6C7"/>
<path d="M30.0228 29.8863H29.5623L24.5078 19.0029C24.309 18.5739 23.702 18.5739 23.5032 19.0029L18.4487 29.8863H17.9883V31.0374C18.0092 31.4246 18.4592 31.7072 18.8359 31.4665L23.9951 28.1177L29.1542 31.4665C29.5309 31.7176 29.9809 31.4246 30.0018 31.0374V29.8863H30.0228Z" fill="#F2A122"/>
<path d="M23.503 17.8936L18.0404 29.6664C17.8102 30.1687 18.3752 30.671 18.8462 30.3676L24.0053 27.0188L29.1644 30.3676C29.6353 30.671 30.2004 30.1792 29.9702 29.6664L24.5076 17.8936C24.3088 17.4645 23.7018 17.4645 23.503 17.8936Z" fill="url(#paint5_radial_465_4030)"/>
<path opacity="0.8" d="M24.6438 39.1371L24.0055 39.4197L23.3671 39.1371C15.3302 35.5582 10.1396 28.1805 10.1396 19.5366V20.0599C10.1396 28.7037 15.3302 36.6046 23.3671 40.1836L24.0055 40.4661L24.6438 40.1836C32.6807 36.6046 37.8713 28.7037 37.8713 20.0599V19.5366C37.8713 28.1805 32.6807 35.5582 24.6438 39.1371Z" fill="url(#paint6_linear_465_4030)"/>
<path style="mix-blend-mode:multiply" d="M36.5948 15.487C32.3671 14.6916 28.4323 13.0382 24.9162 10.5685L24.0162 9.93018L23.1162 10.5581C19.5896 13.0277 15.6653 14.6812 11.4271 15.4765L10.1504 15.7172V16.2404L11.4271 15.9997C15.6549 15.2044 19.5896 13.551 23.1162 11.0813L24.0162 10.4534L24.9162 11.0918C28.4428 13.5614 32.3671 15.2149 36.5948 16.0102L37.8715 16.2509V15.7277L36.5948 15.487Z" fill="url(#paint7_linear_465_4030)"/>
<defs>
<linearGradient id="paint0_linear_465_4030" x1="24.0052" y1="31.7072" x2="24.0052" y2="7.15693" gradientUnits="userSpaceOnUse">
<stop offset="0.161458" stop-color="#BEC4D0"/>
<stop offset="0.68" stop-color="#C5C9D5"/>
<stop offset="0.97" stop-color="#D3D6DE"/>
<stop offset="1" stop-color="#D5D8E0"/>
</linearGradient>
<linearGradient id="paint1_linear_465_4030" x1="7.52344" y1="25.1982" x2="40.4874" y2="25.1982" gradientUnits="userSpaceOnUse">
<stop stop-color="#BEC1CA"/>
<stop offset="0.2" stop-color="#D5D7DE"/>
<stop offset="0.43" stop-color="#E7E8EC"/>
<stop offset="0.58" stop-color="#E3E5E9"/>
<stop offset="0.68" stop-color="#DCDEE4"/>
<stop offset="1" stop-color="#CFD1D8"/>
</linearGradient>
<linearGradient id="paint2_linear_465_4030" x1="24.0053" y1="12.6616" x2="24.0053" y2="39.1688" gradientUnits="userSpaceOnUse">
<stop stop-color="#E9EAEE"/>
<stop offset="0.24" stop-color="#F4F5F6"/>
<stop offset="0.49" stop-color="#F9F9F9"/>
<stop offset="0.68" stop-color="#F4F4F5"/>
<stop offset="0.88" stop-color="#E8E9EC"/>
<stop offset="1" stop-color="#DDDEE4"/>
</linearGradient>
<linearGradient id="paint3_linear_465_4030" x1="24.0055" y1="13.0694" x2="24.0055" y2="38.6557" gradientUnits="userSpaceOnUse">
<stop stop-color="#FFE500"/>
<stop offset="1" stop-color="#FFCD15"/>
</linearGradient>
<linearGradient id="paint4_linear_465_4030" x1="24.0053" y1="12.6613" x2="24.0053" y2="39.1685" gradientUnits="userSpaceOnUse">
<stop offset="0.15" stop-color="#A2A7B9"/>
<stop offset="0.75" stop-color="#E2E3E9"/>
<stop offset="1" stop-color="white"/>
</linearGradient>
<radialGradient id="paint5_radial_465_4030" cx="0" cy="0" r="1" gradientUnits="userSpaceOnUse" gradientTransform="translate(28.2331 17.8936) scale(15.4355)">
<stop stop-color="#3792FF"/>
<stop offset="1" stop-color="#2B72D9"/>
</radialGradient>
<linearGradient id="paint6_linear_465_4030" x1="24.0055" y1="13.0694" x2="24.0055" y2="38.6557" gradientUnits="userSpaceOnUse">
<stop stop-color="#FFCB00"/>
<stop offset="1" stop-color="#F4B046"/>
</linearGradient>
<linearGradient id="paint7_linear_465_4030" x1="24.0057" y1="13.0696" x2="24.0057" y2="38.6559" gradientUnits="userSpaceOnUse">
<stop stop-color="#FFF285"/>
<stop offset="1" stop-color="#FFE400"/>
</linearGradient>
</defs>
</svg>
