<svg width="52" height="52" viewBox="0 0 52 52" fill="none" xmlns="http://www.w3.org/2000/svg">
<path d="M7 39.798C7 39.498 8.3 39.398 14.2 39.298H37.9C43.8 39.398 45 39.498 45 39.798C45 40.098 43.8 40.198 37.9 40.298H14.2C8.3 40.198 7 40.098 7 39.798Z" fill="url(#paint0_radial_10_3276)"/>
<path d="M37.7 20.498H14V24.598H37.7V20.498Z" fill="url(#paint1_linear_10_3276)"/>
<path d="M40.7 21.298C40.6 20.798 40.1 20.498 39.7 20.498H37.7V25.398L36.7 29.198V39.498H41.7C42.3 39.498 42.7 39.098 42.7 38.498V29.198L40.7 21.298Z" fill="url(#paint2_linear_10_3276)"/>
<path d="M40.7001 39.498V29.198L38.7001 21.298C38.4001 20.298 37 20.298 36.8 21.298L34.8 29.198V39.498H40.7001Z" fill="url(#paint3_linear_10_3276)"/>
<path d="M38.9 20.498H14V21.298H38.9V20.498Z" fill="url(#paint4_linear_10_3276)"/>
<path d="M17 29.198L15 21.298C14.9 20.798 14.4 20.498 14 20.498H12V25.398L11 29.198V37.698H17V29.198Z" fill="url(#paint5_linear_10_3276)"/>
<path d="M24.1001 18.3979H18.1001V37.2979H24.1001V18.3979Z" fill="url(#paint6_linear_10_3276)"/>
<path d="M31.6001 24.498H29.7001C29.1001 24.498 28.6001 24.998 28.6001 25.598V33.598H37.3001V25.598C37.3001 24.998 36.8001 24.498 36.2001 24.498H34.3001H31.6001Z" fill="url(#paint7_linear_10_3276)"/>
<path d="M15.0001 37.6931V29.1708L13.0001 21.25C12.7001 20.2474 11.3001 20.2474 11.1001 21.25L9.1001 29.1708V38.4952C9.1001 39.0968 9.5001 39.4979 10.1001 39.4979H11.1001H15.1001H17.1001V37.6931H15.0001Z" fill="url(#paint8_linear_10_3276)"/>
<path d="M16 39.498H41.7C42.3 39.498 42.7 38.998 42.7 38.498V29.198H15V38.498C15 38.998 15.4 39.498 16 39.498Z" fill="url(#paint9_linear_10_3276)"/>
<path d="M34.8001 26.798V18.298L36.2001 16.498C36.4001 16.298 36.4001 15.998 36.4001 15.698L35.3001 9.59797C35.2001 9.09797 34.8001 8.79797 34.3001 8.79797H31.5001C31.0001 8.79797 30.6001 9.19797 30.5001 9.59797L29.4001 15.698C29.4001 15.998 29.4001 16.298 29.6001 16.498L31.0001 18.298V26.798" fill="url(#paint10_linear_10_3276)"/>
<path d="M23.1001 9.79796V14.998H19.1001V9.79796C19.1001 8.99796 18.3001 8.49796 17.6001 8.89796C15.1001 10.398 13.6001 13.198 14.2001 16.298C14.7001 19.098 16.9001 21.298 19.7001 21.798C24.2001 22.698 28.1001 19.298 28.1001 14.898C28.1001 12.298 26.7001 9.99796 24.6001 8.79796C23.9001 8.49796 23.1001 8.99796 23.1001 9.79796Z" fill="url(#paint11_linear_10_3276)"/>
<path d="M40.7 28.998H17V29.198H40.7V28.998Z" fill="white"/>
<path d="M36.7 29.198V39.498H41.7C42.3 39.498 42.7 39.098 42.7 38.498V29.198H36.7Z" fill="url(#paint12_linear_10_3276)"/>
<path d="M42.7 29.198L40.7 21.298C40.6 20.798 40.1 20.498 39.7 20.498H37.7C38.1 20.498 38.5 20.798 38.7 21.298L40.7 29.198H42.7Z" fill="url(#paint13_linear_10_3276)"/>
<defs>
<radialGradient id="paint0_radial_10_3276" cx="0" cy="0" r="1" gradientUnits="userSpaceOnUse" gradientTransform="translate(25.2104 39.7495) scale(19.0425 17.1057)">
<stop stop-color="#7F8598"/>
<stop offset="0.2963" stop-color="#82889A"/>
<stop offset="0.4925" stop-color="#8B90A1"/>
<stop offset="0.6597" stop-color="#9A9FAE"/>
<stop offset="0.8107" stop-color="#AFB3BF"/>
<stop offset="0.9494" stop-color="#CACDD5"/>
<stop offset="1" stop-color="#D6D9DF"/>
</radialGradient>
<linearGradient id="paint1_linear_10_3276" x1="37.2453" y1="22.5326" x2="25.9388" y2="22.5326" gradientUnits="userSpaceOnUse">
<stop stop-color="#A7ACB9"/>
<stop offset="1" stop-color="#CBCDD5"/>
</linearGradient>
<linearGradient id="paint2_linear_10_3276" x1="39.7065" y1="20.8818" x2="39.7065" y2="38.0149" gradientUnits="userSpaceOnUse">
<stop stop-color="#E6E7EB"/>
<stop offset="0.1914" stop-color="#EEEEEF"/>
<stop offset="0.5481" stop-color="#F0F0F0"/>
<stop offset="0.8402" stop-color="#EEEEEF"/>
<stop offset="0.9877" stop-color="#E6E9EB"/>
<stop offset="1" stop-color="#E5E8EB"/>
</linearGradient>
<linearGradient id="paint3_linear_10_3276" x1="37.2453" y1="29.9644" x2="25.9388" y2="29.9644" gradientUnits="userSpaceOnUse">
<stop stop-color="#A7ACB9"/>
<stop offset="1" stop-color="#CBCDD5"/>
</linearGradient>
<linearGradient id="paint4_linear_10_3276" x1="26.3903" y1="20.7818" x2="26.3903" y2="37.9149" gradientUnits="userSpaceOnUse">
<stop stop-color="#E6E7EB"/>
<stop offset="0.0461954" stop-color="#EAEAEE"/>
<stop offset="0.2257" stop-color="#F2F2F3"/>
<stop offset="0.5481" stop-color="#F4F4F5"/>
<stop offset="0.7958" stop-color="#F2F2F3"/>
<stop offset="0.921" stop-color="#EAECEE"/>
<stop offset="1" stop-color="#E0E3E7"/>
</linearGradient>
<linearGradient id="paint5_linear_10_3276" x1="13.961" y1="20.7533" x2="13.961" y2="36.2685" gradientUnits="userSpaceOnUse">
<stop stop-color="#E6E7EB"/>
<stop offset="0.1914" stop-color="#EEEEEF"/>
<stop offset="0.5481" stop-color="#F0F0F0"/>
<stop offset="0.8402" stop-color="#EEEEEF"/>
<stop offset="0.9877" stop-color="#E6E9EB"/>
<stop offset="1" stop-color="#E5E8EB"/>
</linearGradient>
<linearGradient id="paint6_linear_10_3276" x1="21.1012" y1="5.65225" x2="21.1012" y2="27.935" gradientUnits="userSpaceOnUse">
<stop stop-color="#5093FF"/>
<stop offset="1" stop-color="#3E72D3"/>
</linearGradient>
<linearGradient id="paint7_linear_10_3276" x1="32.9791" y1="10.804" x2="32.9791" y2="28.1472" gradientUnits="userSpaceOnUse">
<stop stop-color="#5093FF"/>
<stop offset="1" stop-color="#3E72D3"/>
</linearGradient>
<linearGradient id="paint8_linear_10_3276" x1="18.0135" y1="29.9392" x2="5.1166" y2="29.9392" gradientUnits="userSpaceOnUse">
<stop stop-color="#848A9D"/>
<stop offset="0.3737" stop-color="#9BA0B0"/>
<stop offset="1" stop-color="#CACDD5"/>
</linearGradient>
<linearGradient id="paint9_linear_10_3276" x1="28.8337" y1="20.7818" x2="28.8337" y2="37.9149" gradientUnits="userSpaceOnUse">
<stop stop-color="#E6E7EB"/>
<stop offset="0.1914" stop-color="#EEEEEF"/>
<stop offset="0.5481" stop-color="#F0F0F0"/>
<stop offset="0.8402" stop-color="#EEEEEF"/>
<stop offset="0.9877" stop-color="#E6E9EB"/>
<stop offset="1" stop-color="#E5E8EB"/>
</linearGradient>
<linearGradient id="paint10_linear_10_3276" x1="32.9789" y1="10.4188" x2="32.9789" y2="27.762" gradientUnits="userSpaceOnUse">
<stop stop-color="#5093FF"/>
<stop offset="1" stop-color="#3E72D3"/>
</linearGradient>
<linearGradient id="paint11_linear_10_3276" x1="21.1012" y1="7.21356" x2="21.1012" y2="28.6628" gradientUnits="userSpaceOnUse">
<stop stop-color="#5093FF"/>
<stop offset="1" stop-color="#3E72D3"/>
</linearGradient>
<linearGradient id="paint12_linear_10_3276" x1="38.2688" y1="34.012" x2="41.2617" y2="34.6216" gradientUnits="userSpaceOnUse">
<stop stop-color="#E0E3E7" stop-opacity="0"/>
<stop offset="1" stop-color="#E0E3E7" stop-opacity="0.5"/>
</linearGradient>
<linearGradient id="paint13_linear_10_3276" x1="40.8766" y1="24.6903" x2="41.8742" y2="24.4963" gradientUnits="userSpaceOnUse">
<stop stop-color="#E0E3E7" stop-opacity="0"/>
<stop offset="1" stop-color="#E0E3E7" stop-opacity="0.5"/>
</linearGradient>
</defs>
</svg>
