<svg width="52" height="52" viewBox="0 0 52 52" fill="none" xmlns="http://www.w3.org/2000/svg">
<path d="M6.97998 40C6.97998 39.725 8.25498 39.625 14.33 39.5H35.805C41.805 39.625 42.98 39.725 42.98 40C42.98 40.275 41.805 40.375 35.805 40.5H14.33C8.25498 40.375 6.97998 40.275 6.97998 40Z" fill="url(#paint0_radial_10_3283)"/>
<path d="M32.3549 26.5H8.35488C8.15488 26.5 8.00488 26.35 8.00488 26.15V22.35C8.00488 22.15 8.15488 22 8.35488 22H32.3549C32.5549 22 32.7049 22.15 32.7049 22.35V26.15C32.7049 26.325 32.5549 26.5 32.3549 26.5Z" fill="url(#paint1_linear_10_3283)"/>
<path d="M9.47998 22.8999V25.5999" stroke="#EFA100" stroke-width="0.2372" stroke-miterlimit="10"/>
<path d="M10.5049 22.8999V25.5999" stroke="#EFA100" stroke-width="0.2372" stroke-miterlimit="10"/>
<path d="M11.5549 22.8999V25.5999" stroke="#EFA100" stroke-width="0.2372" stroke-miterlimit="10"/>
<path d="M12.5801 22.8999V25.5999" stroke="#EFA100" stroke-width="0.2372" stroke-miterlimit="10"/>
<path d="M13.6299 22.8999V25.5999" stroke="#EFA100" stroke-width="0.2372" stroke-miterlimit="10"/>
<path d="M14.655 22.8999V25.5999" stroke="#EFA100" stroke-width="0.2372" stroke-miterlimit="10"/>
<path d="M15.6799 22.8999V25.5999" stroke="#EFA100" stroke-width="0.2372" stroke-miterlimit="10"/>
<path d="M16.73 22.8999V25.5999" stroke="#EFA100" stroke-width="0.2372" stroke-miterlimit="10"/>
<path d="M17.7549 22.8999V25.5999" stroke="#EFA100" stroke-width="0.2372" stroke-miterlimit="10"/>
<path d="M18.78 22.8999V25.5999" stroke="#EFA100" stroke-width="0.2372" stroke-miterlimit="10"/>
<path d="M19.8301 22.8999V25.5999" stroke="#EFA100" stroke-width="0.2372" stroke-miterlimit="10"/>
<path d="M20.855 22.8999V25.5999" stroke="#EFA100" stroke-width="0.2372" stroke-miterlimit="10"/>
<path d="M21.905 22.8999V25.5999" stroke="#EFA100" stroke-width="0.2372" stroke-miterlimit="10"/>
<path d="M22.9299 22.8999V25.5999" stroke="#EFA100" stroke-width="0.2372" stroke-miterlimit="10"/>
<path d="M23.9551 22.8999V25.5999" stroke="#EFA100" stroke-width="0.2372" stroke-miterlimit="10"/>
<path d="M25.0049 22.8999V25.5999" stroke="#EFA100" stroke-width="0.2372" stroke-miterlimit="10"/>
<path d="M26.03 22.8999V25.5999" stroke="#EFA100" stroke-width="0.2372" stroke-miterlimit="10"/>
<path d="M27.0549 22.8999V25.5999" stroke="#EFA100" stroke-width="0.2372" stroke-miterlimit="10"/>
<path d="M28.105 22.8999V25.5999" stroke="#EFA100" stroke-width="0.2372" stroke-miterlimit="10"/>
<path d="M29.1299 22.8999V25.5999" stroke="#EFA100" stroke-width="0.2372" stroke-miterlimit="10"/>
<path d="M30.1799 22.8999V25.5999" stroke="#EFA100" stroke-width="0.2372" stroke-miterlimit="10"/>
<path d="M31.2051 22.8999V25.5999" stroke="#EFA100" stroke-width="0.2372" stroke-miterlimit="10"/>
<path d="M32.3549 31H8.35488C8.15488 31 8.00488 30.85 8.00488 30.65V26.85C8.00488 26.65 8.15488 26.5 8.35488 26.5H32.3549C32.5549 26.5 32.7049 26.65 32.7049 26.85V30.65C32.7049 30.825 32.5549 31 32.3549 31Z" fill="url(#paint2_linear_10_3283)"/>
<path d="M9.47998 27.3999V30.0999" stroke="#EFA100" stroke-width="0.2372" stroke-miterlimit="10"/>
<path d="M10.5049 27.3999V30.0999" stroke="#EFA100" stroke-width="0.2372" stroke-miterlimit="10"/>
<path d="M11.5549 27.3999V30.0999" stroke="#EFA100" stroke-width="0.2372" stroke-miterlimit="10"/>
<path d="M12.5801 27.3999V30.0999" stroke="#EFA100" stroke-width="0.2372" stroke-miterlimit="10"/>
<path d="M13.6299 27.3999V30.0999" stroke="#EFA100" stroke-width="0.2372" stroke-miterlimit="10"/>
<path d="M14.655 27.3999V30.0999" stroke="#EFA100" stroke-width="0.2372" stroke-miterlimit="10"/>
<path d="M15.6799 27.3999V30.0999" stroke="#EFA100" stroke-width="0.2372" stroke-miterlimit="10"/>
<path d="M16.73 27.3999V30.0999" stroke="#EFA100" stroke-width="0.2372" stroke-miterlimit="10"/>
<path d="M17.7549 27.3999V30.0999" stroke="#EFA100" stroke-width="0.2372" stroke-miterlimit="10"/>
<path d="M18.78 27.3999V30.0999" stroke="#EFA100" stroke-width="0.2372" stroke-miterlimit="10"/>
<path d="M19.8301 27.3999V30.0999" stroke="#EFA100" stroke-width="0.2372" stroke-miterlimit="10"/>
<path d="M20.855 27.3999V30.0999" stroke="#EFA100" stroke-width="0.2372" stroke-miterlimit="10"/>
<path d="M21.905 27.3999V30.0999" stroke="#EFA100" stroke-width="0.2372" stroke-miterlimit="10"/>
<path d="M22.9299 27.3999V30.0999" stroke="#EFA100" stroke-width="0.2372" stroke-miterlimit="10"/>
<path d="M23.9551 27.3999V30.0999" stroke="#EFA100" stroke-width="0.2372" stroke-miterlimit="10"/>
<path d="M25.0049 27.3999V30.0999" stroke="#EFA100" stroke-width="0.2372" stroke-miterlimit="10"/>
<path d="M26.03 27.3999V30.0999" stroke="#EFA100" stroke-width="0.2372" stroke-miterlimit="10"/>
<path d="M27.0549 27.3999V30.0999" stroke="#EFA100" stroke-width="0.2372" stroke-miterlimit="10"/>
<path d="M28.105 27.3999V30.0999" stroke="#EFA100" stroke-width="0.2372" stroke-miterlimit="10"/>
<path d="M29.1299 27.3999V30.0999" stroke="#EFA100" stroke-width="0.2372" stroke-miterlimit="10"/>
<path d="M30.1799 27.3999V30.0999" stroke="#EFA100" stroke-width="0.2372" stroke-miterlimit="10"/>
<path d="M31.2051 27.3999V30.0999" stroke="#EFA100" stroke-width="0.2372" stroke-miterlimit="10"/>
<path d="M32.3549 35.5H8.35488C8.15488 35.5 8.00488 35.35 8.00488 35.15V31.35C8.00488 31.15 8.15488 31 8.35488 31H32.3549C32.5549 31 32.7049 31.15 32.7049 31.35V35.15C32.7049 35.325 32.5549 35.5 32.3549 35.5Z" fill="url(#paint3_linear_10_3283)"/>
<path d="M9.47998 31.8999V34.5999" stroke="#EFA100" stroke-width="0.2372" stroke-miterlimit="10"/>
<path d="M10.5049 31.8999V34.5999" stroke="#EFA100" stroke-width="0.2372" stroke-miterlimit="10"/>
<path d="M11.5549 31.8999V34.5999" stroke="#EFA100" stroke-width="0.2372" stroke-miterlimit="10"/>
<path d="M12.5801 31.8999V34.5999" stroke="#EFA100" stroke-width="0.2372" stroke-miterlimit="10"/>
<path d="M13.6299 31.8999V34.5999" stroke="#EFA100" stroke-width="0.2372" stroke-miterlimit="10"/>
<path d="M14.655 31.8999V34.5999" stroke="#EFA100" stroke-width="0.2372" stroke-miterlimit="10"/>
<path d="M15.6799 31.8999V34.5999" stroke="#EFA100" stroke-width="0.2372" stroke-miterlimit="10"/>
<path d="M16.73 31.8999V34.5999" stroke="#EFA100" stroke-width="0.2372" stroke-miterlimit="10"/>
<path d="M17.7549 31.8999V34.5999" stroke="#EFA100" stroke-width="0.2372" stroke-miterlimit="10"/>
<path d="M18.78 31.8999V34.5999" stroke="#EFA100" stroke-width="0.2372" stroke-miterlimit="10"/>
<path d="M19.8301 31.8999V34.5999" stroke="#EFA100" stroke-width="0.2372" stroke-miterlimit="10"/>
<path d="M20.855 31.8999V34.5999" stroke="#EFA100" stroke-width="0.2372" stroke-miterlimit="10"/>
<path d="M21.905 31.8999V34.5999" stroke="#EFA100" stroke-width="0.2372" stroke-miterlimit="10"/>
<path d="M22.9299 31.8999V34.5999" stroke="#EFA100" stroke-width="0.2372" stroke-miterlimit="10"/>
<path d="M23.9551 31.8999V34.5999" stroke="#EFA100" stroke-width="0.2372" stroke-miterlimit="10"/>
<path d="M25.0049 31.8999V34.5999" stroke="#EFA100" stroke-width="0.2372" stroke-miterlimit="10"/>
<path d="M26.03 31.8999V34.5999" stroke="#EFA100" stroke-width="0.2372" stroke-miterlimit="10"/>
<path d="M27.0549 31.8999V34.5999" stroke="#EFA100" stroke-width="0.2372" stroke-miterlimit="10"/>
<path d="M28.105 31.8999V34.5999" stroke="#EFA100" stroke-width="0.2372" stroke-miterlimit="10"/>
<path d="M29.1299 31.8999V34.5999" stroke="#EFA100" stroke-width="0.2372" stroke-miterlimit="10"/>
<path d="M30.1799 31.8999V34.5999" stroke="#EFA100" stroke-width="0.2372" stroke-miterlimit="10"/>
<path d="M31.2051 31.8999V34.5999" stroke="#EFA100" stroke-width="0.2372" stroke-miterlimit="10"/>
<path d="M32.3549 40H8.35488C8.15488 40 8.00488 39.85 8.00488 39.65V35.85C8.00488 35.65 8.15488 35.5 8.35488 35.5H32.3549C32.5549 35.5 32.7049 35.65 32.7049 35.85V39.65C32.7049 39.825 32.5549 40 32.3549 40Z" fill="url(#paint4_linear_10_3283)"/>
<path d="M9.47998 36.3999V39.0999" stroke="#EFA100" stroke-width="0.2372" stroke-miterlimit="10"/>
<path d="M10.5049 36.3999V39.0999" stroke="#EFA100" stroke-width="0.2372" stroke-miterlimit="10"/>
<path d="M11.5549 36.3999V39.0999" stroke="#EFA100" stroke-width="0.2372" stroke-miterlimit="10"/>
<path d="M12.5801 36.3999V39.0999" stroke="#EFA100" stroke-width="0.2372" stroke-miterlimit="10"/>
<path d="M13.6299 36.3999V39.0999" stroke="#EFA100" stroke-width="0.2372" stroke-miterlimit="10"/>
<path d="M14.655 36.3999V39.0999" stroke="#EFA100" stroke-width="0.2372" stroke-miterlimit="10"/>
<path d="M15.6799 36.3999V39.0999" stroke="#EFA100" stroke-width="0.2372" stroke-miterlimit="10"/>
<path d="M16.73 36.3999V39.0999" stroke="#EFA100" stroke-width="0.2372" stroke-miterlimit="10"/>
<path d="M17.7549 36.3999V39.0999" stroke="#EFA100" stroke-width="0.2372" stroke-miterlimit="10"/>
<path d="M18.78 36.3999V39.0999" stroke="#EFA100" stroke-width="0.2372" stroke-miterlimit="10"/>
<path d="M19.8301 36.3999V39.0999" stroke="#EFA100" stroke-width="0.2372" stroke-miterlimit="10"/>
<path d="M20.855 36.3999V39.0999" stroke="#EFA100" stroke-width="0.2372" stroke-miterlimit="10"/>
<path d="M21.905 36.3999V39.0999" stroke="#EFA100" stroke-width="0.2372" stroke-miterlimit="10"/>
<path d="M22.9299 36.3999V39.0999" stroke="#EFA100" stroke-width="0.2372" stroke-miterlimit="10"/>
<path d="M23.9551 36.3999V39.0999" stroke="#EFA100" stroke-width="0.2372" stroke-miterlimit="10"/>
<path d="M25.0049 36.3999V39.0999" stroke="#EFA100" stroke-width="0.2372" stroke-miterlimit="10"/>
<path d="M26.03 36.3999V39.0999" stroke="#EFA100" stroke-width="0.2372" stroke-miterlimit="10"/>
<path d="M27.0549 36.3999V39.0999" stroke="#EFA100" stroke-width="0.2372" stroke-miterlimit="10"/>
<path d="M28.105 36.3999V39.0999" stroke="#EFA100" stroke-width="0.2372" stroke-miterlimit="10"/>
<path d="M29.1299 36.3999V39.0999" stroke="#EFA100" stroke-width="0.2372" stroke-miterlimit="10"/>
<path d="M30.1799 36.3999V39.0999" stroke="#EFA100" stroke-width="0.2372" stroke-miterlimit="10"/>
<path d="M31.2051 36.3999V39.0999" stroke="#EFA100" stroke-width="0.2372" stroke-miterlimit="10"/>
<path d="M28.5049 40.0001H9.87988L15.1299 22.8501H28.5049V40.0001Z" fill="url(#paint5_linear_10_3283)"/>
<path d="M29.98 40C38.2643 40 44.98 33.2843 44.98 25C44.98 16.7157 38.2643 10 29.98 10C21.6957 10 14.98 16.7157 14.98 25C14.98 33.2843 21.6957 40 29.98 40Z" fill="url(#paint6_linear_10_3283)"/>
<path d="M37.4299 32.425C33.3299 36.525 26.6549 36.525 22.5549 32.425C18.4549 28.325 18.4549 21.65 22.5549 17.55C26.6549 13.45 33.3299 13.45 37.4299 17.55C41.5299 21.65 41.5299 28.325 37.4299 32.425ZM38.6049 33.6C43.3549 28.85 43.3549 21.125 38.6049 16.375C33.8549 11.625 26.1299 11.625 21.3799 16.375C16.6299 21.125 16.6299 28.85 21.3799 33.6C26.1299 38.35 33.8299 38.375 38.6049 33.6Z" fill="url(#paint7_linear_10_3283)"/>
<path d="M29.9801 35.7751C35.931 35.7751 40.7551 30.9509 40.7551 25.0001C40.7551 19.0492 35.931 14.2251 29.9801 14.2251C24.0292 14.2251 19.2051 19.0492 19.2051 25.0001C19.2051 30.9509 24.0292 35.7751 29.9801 35.7751Z" fill="url(#paint8_linear_10_3283)"/>
<path d="M44.98 25C44.98 16.725 38.255 10 29.98 10C25.78 10 22.005 11.725 19.28 14.5C21.98 11.85 25.68 10.2 29.78 10.2C38.055 10.2 44.78 16.925 44.78 25.2C44.78 29.3 43.13 33 40.48 35.7C43.255 32.975 44.98 29.2 44.98 25Z" fill="url(#paint9_linear_10_3283)"/>
<path d="M15.2049 24.7749C15.2049 20.6749 16.8549 16.9749 19.5049 14.2749C16.7299 16.9999 15.0049 20.7749 15.0049 24.9749C15.0049 33.2499 21.7299 39.9749 30.0049 39.9749C34.2049 39.9749 37.9799 38.2499 40.7049 35.4749C38.0049 38.1249 34.3049 39.7749 30.2049 39.7749C21.9049 39.7749 15.2049 33.0749 15.2049 24.7749Z" fill="#FFC500"/>
<path d="M40.7549 25.0001C40.7549 19.0501 35.9299 14.2251 29.9799 14.2251C26.9799 14.2251 24.2549 15.4501 22.3049 17.4501C24.2549 15.5251 26.9299 14.3501 29.8799 14.3501C35.8299 14.3501 40.6549 19.1751 40.6549 25.1251C40.6549 28.0751 39.4799 30.7501 37.5549 32.7001C39.5299 30.7251 40.7549 28.0001 40.7549 25.0001Z" fill="url(#paint10_linear_10_3283)"/>
<path d="M19.2051 25C19.2051 30.95 24.0301 35.775 29.9801 35.775C32.9801 35.775 35.7051 34.55 37.6551 32.55C35.7051 34.475 33.0301 35.65 30.0801 35.65C24.1301 35.65 19.3051 30.825 19.3051 24.875C19.3051 21.925 20.4801 19.25 22.4051 17.3C20.4301 19.275 19.2051 21.975 19.2051 25Z" fill="#FFC800"/>
<path d="M14.155 15.075L17.38 14L14.155 12.9L12.955 8.5L11.755 12.9L8.53003 14L11.755 15.075L12.955 19.5L14.155 15.075Z" fill="#FFD718"/>
<path d="M37.0301 33.8502L39.5051 33.0002L37.0301 32.1752L36.1051 28.7751L35.1801 32.1752L32.7051 33.0002L35.1801 33.8502L36.1051 37.2502L37.0301 33.8502Z" fill="url(#paint11_linear_10_3283)"/>
<path d="M37.4051 33.325L39.9051 32.475L37.4051 31.65L36.5051 28.25L35.5801 31.65L33.0801 32.475L35.5801 33.325L36.5051 36.725L37.4051 33.325Z" fill="url(#paint12_linear_10_3283)"/>
<path d="M35.98 19.5H23.98V21.15H35.98V19.5Z" fill="url(#paint13_linear_10_3283)"/>
<path d="M35.98 22.3501H30.605V31.5001H32.33V24.0001H35.98V22.3501Z" fill="url(#paint14_linear_10_3283)"/>
<path d="M23.98 22.3501V24.0001H27.63V31.5001H29.355V22.3501H23.98Z" fill="url(#paint15_linear_10_3283)"/>
<path d="M23.98 19.5V19.6H35.88V21.15H35.98V19.5H23.98Z" fill="#C06900"/>
<path d="M30.605 22.4501H35.88V24.0001H35.98V22.3501H30.605V22.4501Z" fill="#C06900"/>
<path d="M23.98 22.4501H29.255V31.5001H29.355V22.3501H23.98V22.4501Z" fill="#C06900"/>
<path d="M32.33 24H32.23V31.5H32.33V24Z" fill="#C06900"/>
<path d="M23.9799 21.15V19.5H23.8799V21.25H35.9799V21.15H23.9799Z" fill="url(#paint16_linear_10_3283)"/>
<path d="M30.6049 22.3501H30.5049V31.6001H32.3299V31.5001H30.6049V22.3501Z" fill="url(#paint17_linear_10_3283)"/>
<path d="M27.6299 24.0001H23.9799V22.3501H23.8799V24.1001H27.5299V31.6001H29.3549V31.5001H27.6299V24.0001Z" fill="url(#paint18_linear_10_3283)"/>
<path d="M35.9798 24H32.3298V24.1H35.9798V24Z" fill="url(#paint19_linear_10_3283)"/>
<defs>
<radialGradient id="paint0_radial_10_3283" cx="0" cy="0" r="1" gradientUnits="userSpaceOnUse" gradientTransform="translate(24.2301 39.9386) scale(18.0402 15.9684)">
<stop stop-color="#7F8598"/>
<stop offset="0.2447" stop-color="#9095A5"/>
<stop offset="0.7243" stop-color="#BABEC9"/>
<stop offset="1" stop-color="#D6D9DF"/>
</radialGradient>
<linearGradient id="paint1_linear_10_3283" x1="20.3417" y1="21.8898" x2="20.3417" y2="25.9849" gradientUnits="userSpaceOnUse">
<stop offset="0.2238" stop-color="#FFE500"/>
<stop offset="0.2482" stop-color="#FFD700"/>
<stop offset="0.2872" stop-color="#FFC600"/>
<stop offset="0.3165" stop-color="#FFC000"/>
<stop offset="0.7958" stop-color="#FFC000"/>
<stop offset="0.9795" stop-color="#D68800"/>
</linearGradient>
<linearGradient id="paint2_linear_10_3283" x1="20.3417" y1="26.3898" x2="20.3417" y2="30.4849" gradientUnits="userSpaceOnUse">
<stop offset="0.2238" stop-color="#FFE500"/>
<stop offset="0.2482" stop-color="#FFD700"/>
<stop offset="0.2872" stop-color="#FFC600"/>
<stop offset="0.3165" stop-color="#FFC000"/>
<stop offset="0.7958" stop-color="#FFC000"/>
<stop offset="0.9795" stop-color="#D68800"/>
</linearGradient>
<linearGradient id="paint3_linear_10_3283" x1="20.3417" y1="30.8898" x2="20.3417" y2="34.9849" gradientUnits="userSpaceOnUse">
<stop offset="0.2238" stop-color="#FFE500"/>
<stop offset="0.2482" stop-color="#FFD700"/>
<stop offset="0.2872" stop-color="#FFC600"/>
<stop offset="0.3165" stop-color="#FFC000"/>
<stop offset="0.7958" stop-color="#FFC000"/>
<stop offset="0.9795" stop-color="#D68800"/>
</linearGradient>
<linearGradient id="paint4_linear_10_3283" x1="20.3417" y1="35.3898" x2="20.3417" y2="39.4849" gradientUnits="userSpaceOnUse">
<stop offset="0.2238" stop-color="#FFE500"/>
<stop offset="0.2482" stop-color="#FFD700"/>
<stop offset="0.2872" stop-color="#FFC600"/>
<stop offset="0.3165" stop-color="#FFC000"/>
<stop offset="0.7958" stop-color="#FFC000"/>
<stop offset="0.9795" stop-color="#D68800"/>
</linearGradient>
<linearGradient id="paint5_linear_10_3283" x1="14.5206" y1="39.5621" x2="19.287" y2="34.2415" gradientUnits="userSpaceOnUse">
<stop stop-color="#D68100" stop-opacity="0"/>
<stop offset="1" stop-color="#D68100" stop-opacity="0.9"/>
</linearGradient>
<linearGradient id="paint6_linear_10_3283" x1="41.7206" y1="15.8222" x2="7.5312" y2="42.5294" gradientUnits="userSpaceOnUse">
<stop offset="0.00927982" stop-color="#FFE500"/>
<stop offset="1" stop-color="#FFC500"/>
</linearGradient>
<linearGradient id="paint7_linear_10_3283" x1="22.1094" y1="32.2736" x2="34.5797" y2="20.7386" gradientUnits="userSpaceOnUse">
<stop stop-color="#FFEF6D"/>
<stop offset="0.1563" stop-color="#FFEA66"/>
<stop offset="0.3838" stop-color="#FDDD53"/>
<stop offset="0.6548" stop-color="#FBC733"/>
<stop offset="0.9573" stop-color="#F8A907"/>
<stop offset="1" stop-color="#F8A400"/>
</linearGradient>
<linearGradient id="paint8_linear_10_3283" x1="33.1783" y1="21.0824" x2="19.5279" y2="37.7748" gradientUnits="userSpaceOnUse">
<stop stop-color="#FFD300"/>
<stop offset="1" stop-color="#FFBE00"/>
</linearGradient>
<linearGradient id="paint9_linear_10_3283" x1="41.0143" y1="14.3002" x2="28.0541" y2="26.8596" gradientUnits="userSpaceOnUse">
<stop stop-color="#FFF280"/>
<stop offset="1" stop-color="#FFF280"/>
</linearGradient>
<linearGradient id="paint10_linear_10_3283" x1="22.302" y1="23.4413" x2="40.7612" y2="23.4413" gradientUnits="userSpaceOnUse">
<stop stop-color="#FFF280"/>
<stop offset="1" stop-color="#FFF280"/>
</linearGradient>
<linearGradient id="paint11_linear_10_3283" x1="30.9334" y1="38.6795" x2="33.9849" y2="35.3345" gradientUnits="userSpaceOnUse">
<stop stop-color="#FFD300"/>
<stop offset="1" stop-color="#FFBE00"/>
</linearGradient>
<linearGradient id="paint12_linear_10_3283" x1="32.0297" y1="36.4786" x2="40.216" y2="29.1431" gradientUnits="userSpaceOnUse">
<stop stop-color="#FFEF6D"/>
<stop offset="1" stop-color="white"/>
</linearGradient>
<linearGradient id="paint13_linear_10_3283" x1="32.576" y1="16.9465" x2="20.937" y2="32.0771" gradientUnits="userSpaceOnUse">
<stop stop-color="#DF8800"/>
<stop offset="1" stop-color="#F89C00"/>
</linearGradient>
<linearGradient id="paint14_linear_10_3283" x1="36.7034" y1="20.1215" x2="25.0645" y2="35.2521" gradientUnits="userSpaceOnUse">
<stop stop-color="#DF8800"/>
<stop offset="1" stop-color="#F89C00"/>
</linearGradient>
<linearGradient id="paint15_linear_10_3283" x1="33.6793" y1="17.7952" x2="22.0403" y2="32.9258" gradientUnits="userSpaceOnUse">
<stop stop-color="#DF8800"/>
<stop offset="1" stop-color="#F89C00"/>
</linearGradient>
<linearGradient id="paint16_linear_10_3283" x1="38.7745" y1="8.8732" x2="-0.00734845" y2="59.2896" gradientUnits="userSpaceOnUse">
<stop stop-color="#FFE800"/>
<stop offset="0.2773" stop-color="#FFEB2C"/>
<stop offset="0.6027" stop-color="#FFEF59"/>
<stop offset="0.8545" stop-color="#FFF176"/>
<stop offset="1" stop-color="#FFF280"/>
</linearGradient>
<linearGradient id="paint17_linear_10_3283" x1="40.2758" y1="15.4622" x2="1.80686" y2="65.4715" gradientUnits="userSpaceOnUse">
<stop stop-color="#FFE800"/>
<stop offset="0.2773" stop-color="#FFEB2C"/>
<stop offset="0.6027" stop-color="#FFEF59"/>
<stop offset="0.8545" stop-color="#FFF176"/>
<stop offset="1" stop-color="#FFF280"/>
</linearGradient>
<linearGradient id="paint18_linear_10_3283" x1="34.1121" y1="17.2175" x2="2.46791" y2="58.3549" gradientUnits="userSpaceOnUse">
<stop stop-color="#FFE800"/>
<stop offset="0.2773" stop-color="#FFEB2C"/>
<stop offset="0.6027" stop-color="#FFEF59"/>
<stop offset="0.8545" stop-color="#FFF176"/>
<stop offset="1" stop-color="#FFF280"/>
</linearGradient>
<linearGradient id="paint19_linear_10_3283" x1="37.0096" y1="20.3394" x2="25.054" y2="35.8817" gradientUnits="userSpaceOnUse">
<stop stop-color="#FFE800"/>
<stop offset="0.2773" stop-color="#FFEB2C"/>
<stop offset="0.6027" stop-color="#FFEF59"/>
<stop offset="0.8545" stop-color="#FFF176"/>
<stop offset="1" stop-color="#FFF280"/>
</linearGradient>
</defs>
</svg>
